{"glyphs":{"\u0000":{"ha":694,"x_min":0,"x_max":0,"o":""},"\n":{"ha":0,"x_min":0,"x_max":0,"o":""},"\r":{"ha":0,"x_min":0,"x_max":0,"o":""}," ":{"ha":349,"x_min":0,"x_max":0,"o":""},"!":{"ha":492,"x_min":111,"x_max":468,"o":"m 353 1444 q 414 1501 364 1471 q 467 1506 465 1533 q 463 1486 467 1499 q 249 379 282 1022 q 196 311 247 349 q 132 299 143 272 q 131 311 131 303 q 353 1444 151 894 m 203 233 q 237 243 215 243 q 253 221 258 243 q 250 113 235 167 q 235 59 260 92 q 179 9 211 26 q 139 7 147 -8 q 136 151 111 79 q 203 233 153 206 z "},"#":{"ha":1001,"x_min":61,"x_max":954,"o":"m 931 638 q 946 619 953 642 q 889 542 935 581 q 858 522 871 525 q 607 465 803 510 q 606 226 606 269 q 544 150 604 192 q 488 132 496 115 q 488 136 488 135 q 489 439 489 238 q 429 425 468 435 q 378 413 390 415 q 363 238 369 325 q 307 171 360 208 q 246 157 254 133 q 244 169 243 163 l 264 383 q 190 365 258 382 q 86 339 121 349 q 72 360 63 333 q 131 438 88 400 q 158 454 147 451 q 218 469 179 460 q 272 483 257 479 l 283 610 l 165 579 q 147 580 153 575 q 144 595 142 585 q 148 614 146 606 q 154 629 150 622 q 238 693 182 679 l 292 708 l 315 961 q 369 1029 318 992 q 432 1042 422 1067 q 432 1031 433 1038 l 407 739 l 486 760 q 485 799 485 776 q 485 840 485 822 q 484 878 485 857 q 483 918 483 900 q 540 994 482 951 q 600 1014 590 1031 q 600 1008 600 1011 q 604 792 601 985 l 840 854 q 851 856 847 856 q 858 852 856 856 q 861 845 860 849 q 862 837 863 842 q 860 828 861 832 q 857 818 858 824 q 854 810 856 813 q 851 803 853 807 q 768 739 822 754 l 606 696 q 607 565 607 597 q 931 638 801 610 m 386 511 q 401 515 393 513 q 415 519 408 517 q 430 523 422 521 q 445 526 438 525 q 460 530 453 528 q 474 534 467 532 q 489 538 482 536 q 488 605 489 561 q 488 664 488 649 l 397 640 l 386 511 z "},"$":{"ha":703,"x_min":60,"x_max":599,"o":"m 501 1036 q 558 973 535 1010 q 590 894 581 936 q 592 808 599 851 q 531 742 585 779 q 474 731 476 706 q 475 740 474 735 q 464 835 485 789 q 419 585 435 672 q 521 401 475 496 q 558 300 547 344 q 558 204 569 256 q 506 113 547 153 q 332 51 435 39 q 296 -186 303 -139 q 249 -240 293 -211 q 207 -242 208 -267 q 208 -237 207 -240 q 254 68 226 -115 q 76 165 158 103 q 80 209 60 176 q 133 263 100 242 q 186 272 167 285 q 278 214 229 240 q 319 463 297 339 q 274 531 304 486 q 220 610 243 575 q 173 688 197 646 q 135 772 149 731 q 121 851 122 814 q 201 1018 119 939 q 369 1094 282 1097 q 431 1079 401 1092 q 442 1135 435 1101 q 454 1199 449 1169 q 465 1256 460 1229 q 514 1308 469 1279 q 553 1311 554 1333 q 553 1307 553 1308 q 501 1036 536 1221 m 282 817 q 357 683 310 760 q 400 922 386 847 q 357 954 381 940 q 280 976 306 981 q 251 944 254 972 q 258 882 249 915 q 282 817 267 849 m 440 214 q 381 357 421 290 q 372 302 378 338 q 362 238 367 267 q 353 182 357 208 q 397 168 381 172 q 447 161 443 157 q 440 214 451 165 z "},"?":{"ha":842,"x_min":68,"x_max":774,"o":"m 749 1290 q 773 1166 774 1222 q 751 1053 772 1110 q 693 947 729 996 q 613 847 657 899 q 524 750 569 796 q 436 651 478 704 q 363 549 394 599 q 316 440 331 499 q 308 322 301 381 q 257 246 313 289 q 193 225 207 207 q 190 232 192 228 q 197 379 181 308 q 258 522 213 450 q 339 636 304 593 q 442 754 374 679 q 490 808 475 790 q 552 882 526 849 q 606 965 578 915 q 644 1056 633 1014 q 647 1148 654 1099 q 608 1239 640 1197 q 510 1310 575 1286 q 381 1333 446 1335 q 258 1298 315 1331 q 182 1206 201 1265 q 124 1146 174 1176 q 69 1143 72 1114 q 72 1163 69 1151 q 142 1280 92 1224 q 256 1376 192 1336 q 394 1435 319 1415 q 535 1451 468 1456 q 660 1406 603 1447 q 749 1290 718 1365 m 250 171 q 284 181 263 181 q 300 158 306 181 q 297 51 282 106 q 260 -29 313 19 q 192 -61 214 -69 l 186 -56 q 183 90 158 17 q 250 171 200 144 z "},"@":{"ha":1003,"x_min":64,"x_max":938,"o":"m 368 1039 q 503 1042 435 1053 q 631 999 572 1031 q 743 921 689 968 q 835 815 797 874 q 899 690 872 756 q 931 556 926 625 q 925 422 936 488 q 838 305 906 324 q 706 358 771 286 q 597 515 642 431 q 486 310 565 363 q 414 295 449 285 q 353 333 379 306 q 313 401 328 361 q 322 614 283 475 q 439 811 364 764 q 582 774 511 856 q 610 700 604 749 q 603 676 613 675 q 579 696 594 678 q 569 704 574 701 q 608 635 597 675 q 627 567 611 608 q 668 485 643 525 q 728 426 693 446 q 799 421 764 406 q 860 510 850 446 q 847 642 869 574 q 792 771 825 711 q 731 856 758 831 q 585 924 665 907 q 426 922 506 942 q 283 850 346 903 q 186 722 219 797 q 154 450 125 578 q 304 226 183 322 q 542 153 425 132 q 742 301 658 174 q 789 278 756 322 q 818 201 828 229 q 817 199 818 200 q 689 73 760 113 q 547 38 618 33 q 405 79 476 43 q 272 174 333 115 q 161 306 210 232 q 98 438 121 364 q 70 586 75 511 q 81 735 65 661 q 132 872 97 810 q 227 978 167 933 q 368 1039 288 1022 m 386 413 q 467 493 419 379 q 529 706 514 604 q 531 713 531 708 q 448 635 490 701 q 386 501 406 569 q 386 413 367 432 z "},"A":{"ha":1811,"x_min":-79,"x_max":2178,"o":"m 2132 1033 q 2144 981 2176 1033 q 2060 900 2111 929 q 2028 889 2042 890 q 1674 874 1826 883 q 1669 256 1665 496 q 1669 201 1671 247 q 1668 108 1668 156 q 1670 10 1668 61 q 1681 -78 1672 -42 q 1703 -121 1689 -114 q 1692 -196 1739 -137 q 1599 -262 1647 -250 q 1571 -261 1582 -267 q 1530 -201 1544 -249 q 1513 -113 1515 -154 q 1512 -7 1511 -72 q 1511 64 1513 58 q 1513 782 1503 315 q 1515 822 1514 796 q 1515 861 1515 849 q 1321 838 1414 850 q 1219 558 1263 674 q 1171 427 1200 511 q 1121 285 1142 343 q 1067 145 1100 226 q 1005 4 1035 64 q 932 -124 975 -56 q 844 -242 889 -193 q 740 -337 799 -292 q 614 -412 681 -383 q 430 -467 525 -451 q 241 -472 335 -483 q 70 -406 147 -461 q -46 -253 -7 -350 q -76 -103 -75 -181 q -56 47 -78 -25 q 3 188 -33 118 q 92 320 40 257 q 197 436 144 383 q 308 533 250 489 q 1228 938 667 817 q 1306 1165 1267 1053 q 1490 1715 1368 1349 q 1508 1774 1496 1733 q 1528 1840 1519 1814 q 1552 1899 1536 1867 q 1588 1950 1568 1931 q 1660 2001 1614 1979 q 1714 1990 1708 2025 q 1717 1882 1719 1921 q 1708 1769 1715 1843 q 1699 1660 1700 1694 q 1676 1006 1685 1332 q 2132 1033 1886 1026 m 806 -125 q 1186 815 1031 331 q 228 344 522 693 q 137 200 172 279 q 90 38 101 121 q 108 -126 79 -46 q 206 -264 136 -207 q 301 -316 250 -297 q 407 -338 353 -335 q 515 -331 461 -342 q 694 -269 635 -311 q 806 -125 753 -226 m 1519 988 q 1535 1453 1525 1221 q 1367 964 1453 1207 q 1519 988 1449 978 z "},"À":{"ha":1811,"x_min":-79,"x_max":2178,"o":"m 2132 1033 q 2144 981 2176 1033 q 2060 900 2111 929 q 2028 889 2042 890 q 1674 874 1826 883 q 1669 256 1665 496 q 1669 201 1671 247 q 1668 108 1668 156 q 1670 10 1668 61 q 1681 -78 1672 -42 q 1703 -121 1689 -114 q 1692 -196 1739 -137 q 1599 -262 1647 -250 q 1571 -261 1582 -267 q 1530 -201 1544 -249 q 1513 -113 1515 -154 q 1512 -7 1511 -72 q 1511 64 1513 58 q 1513 782 1503 315 q 1515 822 1514 796 q 1515 861 1515 849 q 1321 838 1414 850 q 1219 558 1263 674 q 1171 427 1200 511 q 1121 285 1142 343 q 1067 145 1100 226 q 1005 4 1035 64 q 932 -124 975 -56 q 844 -242 889 -193 q 740 -337 799 -292 q 614 -412 681 -383 q 430 -467 525 -451 q 241 -472 335 -483 q 70 -406 147 -461 q -46 -253 -7 -350 q -76 -103 -75 -181 q -56 47 -78 -25 q 3 188 -33 118 q 92 320 40 257 q 197 436 144 383 q 308 533 250 489 q 1228 938 667 817 q 1306 1165 1267 1053 q 1490 1715 1368 1349 q 1508 1774 1496 1733 q 1528 1840 1519 1814 q 1552 1899 1536 1867 q 1588 1950 1568 1931 q 1660 2001 1614 1979 q 1714 1990 1708 2025 q 1717 1882 1719 1921 q 1708 1769 1715 1843 q 1699 1660 1700 1694 q 1676 1006 1685 1332 q 2132 1033 1886 1026 m 806 -125 q 1186 815 1031 331 q 228 344 522 693 q 137 200 172 279 q 90 38 101 121 q 108 -126 79 -46 q 206 -264 136 -207 q 301 -316 250 -297 q 407 -338 353 -335 q 515 -331 461 -342 q 694 -269 635 -311 q 806 -125 753 -226 m 1519 988 q 1535 1453 1525 1221 q 1367 964 1453 1207 q 1519 988 1449 978 z "},"Á":{"ha":1811,"x_min":-79,"x_max":2178,"o":"m 2132 1033 q 2144 981 2176 1033 q 2060 900 2111 929 q 2028 889 2042 890 q 1674 874 1826 883 q 1669 256 1665 496 q 1669 201 1671 247 q 1668 108 1668 156 q 1670 10 1668 61 q 1681 -78 1672 -42 q 1703 -121 1689 -114 q 1692 -196 1739 -137 q 1599 -262 1647 -250 q 1571 -261 1582 -267 q 1530 -201 1544 -249 q 1513 -113 1515 -154 q 1512 -7 1511 -72 q 1511 64 1513 58 q 1513 782 1503 315 q 1515 822 1514 796 q 1515 861 1515 849 q 1321 838 1414 850 q 1219 558 1263 674 q 1171 427 1200 511 q 1121 285 1142 343 q 1067 145 1100 226 q 1005 4 1035 64 q 932 -124 975 -56 q 844 -242 889 -193 q 740 -337 799 -292 q 614 -412 681 -383 q 430 -467 525 -451 q 241 -472 335 -483 q 70 -406 147 -461 q -46 -253 -7 -350 q -76 -103 -75 -181 q -56 47 -78 -25 q 3 188 -33 118 q 92 320 40 257 q 197 436 144 383 q 308 533 250 489 q 1228 938 667 817 q 1306 1165 1267 1053 q 1490 1715 1368 1349 q 1508 1774 1496 1733 q 1528 1840 1519 1814 q 1552 1899 1536 1867 q 1588 1950 1568 1931 q 1660 2001 1614 1979 q 1714 1990 1708 2025 q 1717 1882 1719 1921 q 1708 1769 1715 1843 q 1699 1660 1700 1694 q 1676 1006 1685 1332 q 2132 1033 1886 1026 m 806 -125 q 1186 815 1031 331 q 228 344 522 693 q 137 200 172 279 q 90 38 101 121 q 108 -126 79 -46 q 206 -264 136 -207 q 301 -316 250 -297 q 407 -338 353 -335 q 515 -331 461 -342 q 694 -269 635 -311 q 806 -125 753 -226 m 1519 988 q 1535 1453 1525 1221 q 1367 964 1453 1207 q 1519 988 1449 978 z "},"Â":{"ha":1811,"x_min":-79,"x_max":2178,"o":"m 2132 1033 q 2144 981 2176 1033 q 2060 900 2111 929 q 2028 889 2042 890 q 1674 874 1826 883 q 1669 256 1665 496 q 1669 201 1671 247 q 1668 108 1668 156 q 1670 10 1668 61 q 1681 -78 1672 -42 q 1703 -121 1689 -114 q 1692 -196 1739 -137 q 1599 -262 1647 -250 q 1571 -261 1582 -267 q 1530 -201 1544 -249 q 1513 -113 1515 -154 q 1512 -7 1511 -72 q 1511 64 1513 58 q 1513 782 1503 315 q 1515 822 1514 796 q 1515 861 1515 849 q 1321 838 1414 850 q 1219 558 1263 674 q 1171 427 1200 511 q 1121 285 1142 343 q 1067 145 1100 226 q 1005 4 1035 64 q 932 -124 975 -56 q 844 -242 889 -193 q 740 -337 799 -292 q 614 -412 681 -383 q 430 -467 525 -451 q 241 -472 335 -483 q 70 -406 147 -461 q -46 -253 -7 -350 q -76 -103 -75 -181 q -56 47 -78 -25 q 3 188 -33 118 q 92 320 40 257 q 197 436 144 383 q 308 533 250 489 q 1228 938 667 817 q 1306 1165 1267 1053 q 1490 1715 1368 1349 q 1508 1774 1496 1733 q 1528 1840 1519 1814 q 1552 1899 1536 1867 q 1588 1950 1568 1931 q 1660 2001 1614 1979 q 1714 1990 1708 2025 q 1717 1882 1719 1921 q 1708 1769 1715 1843 q 1699 1660 1700 1694 q 1676 1006 1685 1332 q 2132 1033 1886 1026 m 806 -125 q 1186 815 1031 331 q 228 344 522 693 q 137 200 172 279 q 90 38 101 121 q 108 -126 79 -46 q 206 -264 136 -207 q 301 -316 250 -297 q 407 -338 353 -335 q 515 -331 461 -342 q 694 -269 635 -311 q 806 -125 753 -226 m 1519 988 q 1535 1453 1525 1221 q 1367 964 1453 1207 q 1519 988 1449 978 z "},"Ã":{"ha":1811,"x_min":-79,"x_max":2178,"o":"m 2132 1033 q 2144 981 2176 1033 q 2060 900 2111 929 q 2028 889 2042 890 q 1674 874 1826 883 q 1669 256 1665 496 q 1669 201 1671 247 q 1668 108 1668 156 q 1670 10 1668 61 q 1681 -78 1672 -42 q 1703 -121 1689 -114 q 1692 -196 1739 -137 q 1599 -262 1647 -250 q 1571 -261 1582 -267 q 1530 -201 1544 -249 q 1513 -113 1515 -154 q 1512 -7 1511 -72 q 1511 64 1513 58 q 1513 782 1503 315 q 1515 822 1514 796 q 1515 861 1515 849 q 1321 838 1414 850 q 1219 558 1263 674 q 1171 427 1200 511 q 1121 285 1142 343 q 1067 145 1100 226 q 1005 4 1035 64 q 932 -124 975 -56 q 844 -242 889 -193 q 740 -337 799 -292 q 614 -412 681 -383 q 430 -467 525 -451 q 241 -472 335 -483 q 70 -406 147 -461 q -46 -253 -7 -350 q -76 -103 -75 -181 q -56 47 -78 -25 q 3 188 -33 118 q 92 320 40 257 q 197 436 144 383 q 308 533 250 489 q 1228 938 667 817 q 1306 1165 1267 1053 q 1490 1715 1368 1349 q 1508 1774 1496 1733 q 1528 1840 1519 1814 q 1552 1899 1536 1867 q 1588 1950 1568 1931 q 1660 2001 1614 1979 q 1714 1990 1708 2025 q 1717 1882 1719 1921 q 1708 1769 1715 1843 q 1699 1660 1700 1694 q 1676 1006 1685 1332 q 2132 1033 1886 1026 m 806 -125 q 1186 815 1031 331 q 228 344 522 693 q 137 200 172 279 q 90 38 101 121 q 108 -126 79 -46 q 206 -264 136 -207 q 301 -316 250 -297 q 407 -338 353 -335 q 515 -331 461 -342 q 694 -269 635 -311 q 806 -125 753 -226 m 1519 988 q 1535 1453 1525 1221 q 1367 964 1453 1207 q 1519 988 1449 978 z "},"Ä":{"ha":1811,"x_min":-79,"x_max":2178,"o":"m 2132 1033 q 2144 981 2176 1033 q 2060 900 2111 929 q 2028 889 2042 890 q 1674 874 1826 883 q 1669 256 1665 496 q 1669 201 1671 247 q 1668 108 1668 156 q 1670 10 1668 61 q 1681 -78 1672 -42 q 1703 -121 1689 -114 q 1692 -196 1739 -137 q 1599 -262 1647 -250 q 1571 -261 1582 -267 q 1530 -201 1544 -249 q 1513 -113 1515 -154 q 1512 -7 1511 -72 q 1511 64 1513 58 q 1513 782 1503 315 q 1515 822 1514 796 q 1515 861 1515 849 q 1321 838 1414 850 q 1219 558 1263 674 q 1171 427 1200 511 q 1121 285 1142 343 q 1067 145 1100 226 q 1005 4 1035 64 q 932 -124 975 -56 q 844 -242 889 -193 q 740 -337 799 -292 q 614 -412 681 -383 q 430 -467 525 -451 q 241 -472 335 -483 q 70 -406 147 -461 q -46 -253 -7 -350 q -76 -103 -75 -181 q -56 47 -78 -25 q 3 188 -33 118 q 92 320 40 257 q 197 436 144 383 q 308 533 250 489 q 1228 938 667 817 q 1306 1165 1267 1053 q 1490 1715 1368 1349 q 1508 1774 1496 1733 q 1528 1840 1519 1814 q 1552 1899 1536 1867 q 1588 1950 1568 1931 q 1660 2001 1614 1979 q 1714 1990 1708 2025 q 1717 1882 1719 1921 q 1708 1769 1715 1843 q 1699 1660 1700 1694 q 1676 1006 1685 1332 q 2132 1033 1886 1026 m 806 -125 q 1186 815 1031 331 q 228 344 522 693 q 137 200 172 279 q 90 38 101 121 q 108 -126 79 -46 q 206 -264 136 -207 q 301 -316 250 -297 q 407 -338 353 -335 q 515 -331 461 -342 q 694 -269 635 -311 q 806 -125 753 -226 m 1519 988 q 1535 1453 1525 1221 q 1367 964 1453 1207 q 1519 988 1449 978 z "},"Å":{"ha":1811,"x_min":-79,"x_max":2178,"o":"m 2132 1033 q 2144 981 2176 1033 q 2060 900 2111 929 q 2028 889 2042 890 q 1674 874 1826 883 q 1669 256 1665 496 q 1669 201 1671 247 q 1668 108 1668 156 q 1670 10 1668 61 q 1681 -78 1672 -42 q 1703 -121 1689 -114 q 1692 -196 1739 -137 q 1599 -262 1647 -250 q 1571 -261 1582 -267 q 1530 -201 1544 -249 q 1513 -113 1515 -154 q 1512 -7 1511 -72 q 1511 64 1513 58 q 1513 782 1503 315 q 1515 822 1514 796 q 1515 861 1515 849 q 1321 838 1414 850 q 1219 558 1263 674 q 1171 427 1200 511 q 1121 285 1142 343 q 1067 145 1100 226 q 1005 4 1035 64 q 932 -124 975 -56 q 844 -242 889 -193 q 740 -337 799 -292 q 614 -412 681 -383 q 430 -467 525 -451 q 241 -472 335 -483 q 70 -406 147 -461 q -46 -253 -7 -350 q -76 -103 -75 -181 q -56 47 -78 -25 q 3 188 -33 118 q 92 320 40 257 q 197 436 144 383 q 308 533 250 489 q 1228 938 667 817 q 1306 1165 1267 1053 q 1490 1715 1368 1349 q 1508 1774 1496 1733 q 1528 1840 1519 1814 q 1552 1899 1536 1867 q 1588 1950 1568 1931 q 1660 2001 1614 1979 q 1714 1990 1708 2025 q 1717 1882 1719 1921 q 1708 1769 1715 1843 q 1699 1660 1700 1694 q 1676 1006 1685 1332 q 2132 1033 1886 1026 m 806 -125 q 1186 815 1031 331 q 228 344 522 693 q 137 200 172 279 q 90 38 101 121 q 108 -126 79 -46 q 206 -264 136 -207 q 301 -316 250 -297 q 407 -338 353 -335 q 515 -331 461 -342 q 694 -269 635 -311 q 806 -125 753 -226 m 1519 988 q 1535 1453 1525 1221 q 1367 964 1453 1207 q 1519 988 1449 978 z "},"B":{"ha":2404,"x_min":-19,"x_max":2378,"o":"m 2349 328 q 2342 271 2378 319 q 2268 213 2306 219 l 2254 213 q 2164 233 2217 222 q 2147 182 2156 204 q 2067 26 2118 101 q 1957 -110 2017 -49 q 1819 -228 1897 -171 q 1667 -331 1742 -286 q 1504 -420 1593 -376 q 1342 -495 1415 -464 q 1183 -558 1268 -526 q 531 -735 867 -682 q 510 -737 524 -735 q 400 -752 442 -747 q 292 -760 358 -757 q 172 -753 226 -762 q 75 -722 118 -743 q -12 -614 -6 -681 q 40 -471 -19 -547 q 172 -322 99 -394 q 347 -178 246 -250 q 503 -70 447 -107 q 600 -8 558 -33 q 1279 286 919 183 l 1339 722 q 1279 710 1306 717 q 1267 740 1246 703 q 1329 815 1290 785 q 1338 821 1335 819 l 1354 829 l 1440 1446 q 1496 1513 1444 1475 q 1557 1526 1549 1550 q 1558 1514 1558 1521 l 1469 883 q 1581 944 1528 914 q 1692 1014 1633 974 q 1795 1094 1750 1054 q 1877 1183 1840 1135 q 1931 1278 1914 1231 q 1941 1378 1947 1325 q 1900 1483 1935 1432 q 1798 1590 1856 1549 q 1677 1649 1740 1632 q 1543 1667 1614 1667 q 1402 1651 1472 1667 q 1259 1609 1332 1636 q 1120 1549 1186 1582 q 991 1476 1054 1515 q 878 1401 928 1438 q 788 1328 828 1364 q 730 1300 753 1301 q 708 1322 707 1299 q 742 1374 710 1346 q 1336 1728 1004 1608 q 1464 1760 1397 1749 q 1602 1773 1531 1771 q 1742 1760 1674 1775 q 1869 1719 1810 1746 q 1975 1641 1928 1692 q 2047 1521 2022 1590 q 2066 1422 2065 1472 q 2051 1324 2067 1371 q 2008 1231 2035 1276 q 1943 1142 1982 1186 q 1861 1059 1904 1099 q 1765 981 1818 1019 q 1663 911 1713 943 q 1560 849 1614 879 q 1749 829 1657 849 q 1922 770 1840 810 q 2064 674 2004 731 q 2157 536 2124 617 q 2185 360 2190 456 q 2349 328 2268 349 m 1449 735 l 1390 317 q 2049 375 1715 396 q 1970 553 2029 478 q 1828 669 1911 629 q 1649 725 1744 708 q 1449 735 1554 742 m 1331 -411 q 1458 -355 1401 -381 q 1592 -289 1515 -329 q 1727 -210 1668 -249 q 1849 -118 1786 -171 q 1953 -11 1911 -65 q 2024 111 1994 43 q 2057 250 2053 179 q 1376 214 1714 290 l 1360 94 q 1304 28 1356 65 q 1243 14 1251 -10 q 1243 26 1242 18 l 1265 188 q 583 -101 903 92 q 242 -356 375 -228 q 243 -628 7 -581 l 313 -637 q 1331 -411 718 -668 z "},"C":{"ha":1458,"x_min":4,"x_max":1571,"o":"m 1453 110 q 1519 167 1467 136 q 1568 169 1571 196 q 1563 151 1568 163 q 1349 -156 1490 -1 q 1028 -423 1208 -310 q 655 -565 847 -536 q 286 -499 463 -594 q 160 -392 214 -456 q 75 -258 106 -329 q 28 -99 44 -186 q 8 72 11 -11 q 11 247 4 154 q 30 415 18 340 q 58 568 42 489 q 169 981 101 779 q 335 1381 236 1182 q 556 1746 435 1579 q 617 1824 585 1786 q 691 1901 649 1861 q 774 1972 733 1942 q 862 2018 815 2001 q 951 2032 908 2035 q 1035 1998 993 2029 q 1111 1907 1078 1967 q 1170 1735 1153 1833 q 1185 1545 1188 1636 q 1165 1340 1183 1454 q 1128 1149 1147 1226 q 1082 972 1110 1071 q 1017 906 1074 942 q 963 894 965 872 q 964 904 963 899 q 997 1025 985 976 q 1028 1159 1010 1074 q 1056 1308 1047 1244 q 1069 1455 1065 1372 q 1066 1601 1074 1538 q 1036 1730 1058 1665 q 976 1840 1014 1794 q 565 1649 808 2050 q 358 1221 472 1494 q 158 -51 32 436 q 258 -266 192 -179 q 407 -391 324 -353 q 590 -435 490 -429 q 791 -413 689 -440 q 994 -335 893 -386 q 1183 -216 1096 -285 q 1341 -63 1269 -147 q 1453 110 1413 21 z "},"Ç":{"ha":1458,"x_min":4,"x_max":1571,"o":"m 1453 110 q 1519 167 1467 136 q 1568 169 1571 196 q 1563 151 1568 163 q 1349 -156 1490 -1 q 1028 -423 1208 -310 q 655 -565 847 -536 q 286 -499 463 -594 q 160 -392 214 -456 q 75 -258 106 -329 q 28 -99 44 -186 q 8 72 11 -11 q 11 247 4 154 q 30 415 18 340 q 58 568 42 489 q 169 981 101 779 q 335 1381 236 1182 q 556 1746 435 1579 q 617 1824 585 1786 q 691 1901 649 1861 q 774 1972 733 1942 q 862 2018 815 2001 q 951 2032 908 2035 q 1035 1998 993 2029 q 1111 1907 1078 1967 q 1170 1735 1153 1833 q 1185 1545 1188 1636 q 1165 1340 1183 1454 q 1128 1149 1147 1226 q 1082 972 1110 1071 q 1017 906 1074 942 q 963 894 965 872 q 964 904 963 899 q 997 1025 985 976 q 1028 1159 1010 1074 q 1056 1308 1047 1244 q 1069 1455 1065 1372 q 1066 1601 1074 1538 q 1036 1730 1058 1665 q 976 1840 1014 1794 q 565 1649 808 2050 q 358 1221 472 1494 q 158 -51 32 436 q 258 -266 192 -179 q 407 -391 324 -353 q 590 -435 490 -429 q 791 -413 689 -440 q 994 -335 893 -386 q 1183 -216 1096 -285 q 1341 -63 1269 -147 q 1453 110 1413 21 z "},"D":{"ha":2214,"x_min":26,"x_max":2240,"o":"m 2224 43 q 2218 -5 2239 28 q 2163 -58 2197 -37 q 2114 -64 2129 -79 q 1743 179 1947 88 q 1215 -275 1514 -89 q 574 -547 915 -461 q 462 -572 508 -564 q 348 -587 415 -581 q 222 -586 281 -594 q 119 -554 164 -578 q 49 -494 72 -529 q 29 -420 26 -460 q 48 -338 32 -381 q 99 -250 64 -296 q 172 -162 135 -204 q 258 -75 208 -119 q 347 3 307 -31 q 433 72 386 38 q 504 125 479 107 q 553 161 529 143 q 1058 381 783 324 l 1153 1238 q 1208 1304 1157 1267 q 1269 1318 1261 1342 q 1271 1306 1271 1313 l 1169 399 q 1767 325 1478 433 q 1993 961 1963 614 q 1993 1123 1997 1043 q 1965 1280 1989 1203 q 1901 1420 1940 1357 q 1799 1533 1863 1483 q 1653 1610 1735 1583 q 1495 1637 1578 1633 q 1336 1628 1413 1640 q 1176 1587 1260 1615 q 1022 1525 1093 1558 q 872 1445 950 1492 q 735 1358 794 1399 q 608 1268 675 1317 q 550 1260 557 1229 q 579 1326 544 1290 q 594 1342 586 1335 q 735 1442 668 1396 q 890 1540 803 1488 q 1058 1630 978 1592 q 1233 1700 1139 1668 q 1412 1745 1326 1732 q 1590 1753 1497 1758 q 1767 1718 1683 1747 q 1936 1617 1865 1683 q 2045 1470 2007 1551 q 2100 1290 2083 1389 q 2114 1097 2117 1192 q 2094 906 2111 1003 q 1836 299 2032 574 q 2224 43 2051 203 m 1278 -153 q 1679 207 1506 -4 q 1593 239 1631 226 q 1158 297 1382 311 l 1133 76 q 1078 10 1131 46 q 1017 -4 1026 -29 q 1017 7 1015 0 l 1047 283 q 454 6 717 218 q 208 -242 286 -124 q 324 -467 76 -439 q 335 -468 329 -467 q 579 -456 450 -478 q 832 -385 708 -433 q 1064 -279 956 -336 q 1278 -153 1172 -222 z "},"E":{"ha":2651,"x_min":33,"x_max":2619,"o":"m 2521 417 q 2594 457 2553 453 q 2617 440 2619 458 q 2593 400 2615 425 q 1992 -124 2329 96 q 1272 -462 1656 -343 q 1067 -524 1161 -499 q 840 -575 972 -550 q 597 -605 707 -600 q 369 -592 488 -610 q 163 -525 251 -574 q 67 -437 99 -490 q 35 -326 35 -385 q 56 -199 35 -267 q 111 -68 76 -131 q 190 56 146 -6 q 274 165 233 118 q 351 249 314 213 q 1422 878 760 649 q 960 1042 1089 889 q 915 1140 921 1088 q 931 1241 908 1192 q 985 1332 953 1290 q 1063 1410 1018 1374 q 1364 1583 1186 1513 q 1718 1683 1542 1654 q 2067 1710 1894 1713 q 2315 1657 2247 1708 q 2272 1511 2389 1604 q 2217 1500 2222 1469 q 2244 1569 2211 1531 q 2258 1583 2251 1578 q 2250 1576 2256 1581 q 2224 1556 2228 1558 q 2217 1557 2219 1554 q 2213 1563 2215 1561 q 2201 1568 2210 1565 q 2181 1571 2193 1571 q 2146 1576 2165 1572 q 2105 1584 2126 1579 q 2071 1592 2083 1589 q 1744 1578 1907 1606 q 1039 1282 1103 1486 q 1056 1140 1013 1199 q 1196 1056 1100 1082 q 1397 1015 1292 1029 q 1624 1003 1501 1001 q 1817 1010 1747 1006 q 1938 1019 1886 1014 q 1951 986 1971 1022 q 1885 914 1928 943 q 1865 904 1874 906 q 1475 803 1665 863 q 1095 660 1285 743 q 731 466 906 578 q 415 221 556 354 q 316 110 363 171 q 231 -19 269 50 q 177 -155 192 -87 q 172 -281 163 -222 q 233 -385 181 -339 q 379 -453 286 -431 q 1367 -339 767 -542 q 1995 -40 1701 -232 q 2521 417 2289 153 z "},"È":{"ha":2651,"x_min":33,"x_max":2619,"o":"m 2521 417 q 2594 457 2553 453 q 2617 440 2619 458 q 2593 400 2615 425 q 1992 -124 2329 96 q 1272 -462 1656 -343 q 1067 -524 1161 -499 q 840 -575 972 -550 q 597 -605 707 -600 q 369 -592 488 -610 q 163 -525 251 -574 q 67 -437 99 -490 q 35 -326 35 -385 q 56 -199 35 -267 q 111 -68 76 -131 q 190 56 146 -6 q 274 165 233 118 q 351 249 314 213 q 1422 878 760 649 q 960 1042 1089 889 q 915 1140 921 1088 q 931 1241 908 1192 q 985 1332 953 1290 q 1063 1410 1018 1374 q 1364 1583 1186 1513 q 1718 1683 1542 1654 q 2067 1710 1894 1713 q 2315 1657 2247 1708 q 2272 1511 2389 1604 q 2217 1500 2222 1469 q 2244 1569 2211 1531 q 2258 1583 2251 1578 q 2250 1576 2256 1581 q 2224 1556 2228 1558 q 2217 1557 2219 1554 q 2213 1563 2215 1561 q 2201 1568 2210 1565 q 2181 1571 2193 1571 q 2146 1576 2165 1572 q 2105 1584 2126 1579 q 2071 1592 2083 1589 q 1744 1578 1907 1606 q 1039 1282 1103 1486 q 1056 1140 1013 1199 q 1196 1056 1100 1082 q 1397 1015 1292 1029 q 1624 1003 1501 1001 q 1817 1010 1747 1006 q 1938 1019 1886 1014 q 1951 986 1971 1022 q 1885 914 1928 943 q 1865 904 1874 906 q 1475 803 1665 863 q 1095 660 1285 743 q 731 466 906 578 q 415 221 556 354 q 316 110 363 171 q 231 -19 269 50 q 177 -155 192 -87 q 172 -281 163 -222 q 233 -385 181 -339 q 379 -453 286 -431 q 1367 -339 767 -542 q 1995 -40 1701 -232 q 2521 417 2289 153 z "},"É":{"ha":2651,"x_min":33,"x_max":2619,"o":"m 2521 417 q 2594 457 2553 453 q 2617 440 2619 458 q 2593 400 2615 425 q 1992 -124 2329 96 q 1272 -462 1656 -343 q 1067 -524 1161 -499 q 840 -575 972 -550 q 597 -605 707 -600 q 369 -592 488 -610 q 163 -525 251 -574 q 67 -437 99 -490 q 35 -326 35 -385 q 56 -199 35 -267 q 111 -68 76 -131 q 190 56 146 -6 q 274 165 233 118 q 351 249 314 213 q 1422 878 760 649 q 960 1042 1089 889 q 915 1140 921 1088 q 931 1241 908 1192 q 985 1332 953 1290 q 1063 1410 1018 1374 q 1364 1583 1186 1513 q 1718 1683 1542 1654 q 2067 1710 1894 1713 q 2315 1657 2247 1708 q 2272 1511 2389 1604 q 2217 1500 2222 1469 q 2244 1569 2211 1531 q 2258 1583 2251 1578 q 2250 1576 2256 1581 q 2224 1556 2228 1558 q 2217 1557 2219 1554 q 2213 1563 2215 1561 q 2201 1568 2210 1565 q 2181 1571 2193 1571 q 2146 1576 2165 1572 q 2105 1584 2126 1579 q 2071 1592 2083 1589 q 1744 1578 1907 1606 q 1039 1282 1103 1486 q 1056 1140 1013 1199 q 1196 1056 1100 1082 q 1397 1015 1292 1029 q 1624 1003 1501 1001 q 1817 1010 1747 1006 q 1938 1019 1886 1014 q 1951 986 1971 1022 q 1885 914 1928 943 q 1865 904 1874 906 q 1475 803 1665 863 q 1095 660 1285 743 q 731 466 906 578 q 415 221 556 354 q 316 110 363 171 q 231 -19 269 50 q 177 -155 192 -87 q 172 -281 163 -222 q 233 -385 181 -339 q 379 -453 286 -431 q 1367 -339 767 -542 q 1995 -40 1701 -232 q 2521 417 2289 153 z "},"Ê":{"ha":2651,"x_min":33,"x_max":2619,"o":"m 2521 417 q 2594 457 2553 453 q 2617 440 2619 458 q 2593 400 2615 425 q 1992 -124 2329 96 q 1272 -462 1656 -343 q 1067 -524 1161 -499 q 840 -575 972 -550 q 597 -605 707 -600 q 369 -592 488 -610 q 163 -525 251 -574 q 67 -437 99 -490 q 35 -326 35 -385 q 56 -199 35 -267 q 111 -68 76 -131 q 190 56 146 -6 q 274 165 233 118 q 351 249 314 213 q 1422 878 760 649 q 960 1042 1089 889 q 915 1140 921 1088 q 931 1241 908 1192 q 985 1332 953 1290 q 1063 1410 1018 1374 q 1364 1583 1186 1513 q 1718 1683 1542 1654 q 2067 1710 1894 1713 q 2315 1657 2247 1708 q 2272 1511 2389 1604 q 2217 1500 2222 1469 q 2244 1569 2211 1531 q 2258 1583 2251 1578 q 2250 1576 2256 1581 q 2224 1556 2228 1558 q 2217 1557 2219 1554 q 2213 1563 2215 1561 q 2201 1568 2210 1565 q 2181 1571 2193 1571 q 2146 1576 2165 1572 q 2105 1584 2126 1579 q 2071 1592 2083 1589 q 1744 1578 1907 1606 q 1039 1282 1103 1486 q 1056 1140 1013 1199 q 1196 1056 1100 1082 q 1397 1015 1292 1029 q 1624 1003 1501 1001 q 1817 1010 1747 1006 q 1938 1019 1886 1014 q 1951 986 1971 1022 q 1885 914 1928 943 q 1865 904 1874 906 q 1475 803 1665 863 q 1095 660 1285 743 q 731 466 906 578 q 415 221 556 354 q 316 110 363 171 q 231 -19 269 50 q 177 -155 192 -87 q 172 -281 163 -222 q 233 -385 181 -339 q 379 -453 286 -431 q 1367 -339 767 -542 q 1995 -40 1701 -232 q 2521 417 2289 153 z "},"Ë":{"ha":2651,"x_min":33,"x_max":2619,"o":"m 2521 417 q 2594 457 2553 453 q 2617 440 2619 458 q 2593 400 2615 425 q 1992 -124 2329 96 q 1272 -462 1656 -343 q 1067 -524 1161 -499 q 840 -575 972 -550 q 597 -605 707 -600 q 369 -592 488 -610 q 163 -525 251 -574 q 67 -437 99 -490 q 35 -326 35 -385 q 56 -199 35 -267 q 111 -68 76 -131 q 190 56 146 -6 q 274 165 233 118 q 351 249 314 213 q 1422 878 760 649 q 960 1042 1089 889 q 915 1140 921 1088 q 931 1241 908 1192 q 985 1332 953 1290 q 1063 1410 1018 1374 q 1364 1583 1186 1513 q 1718 1683 1542 1654 q 2067 1710 1894 1713 q 2315 1657 2247 1708 q 2272 1511 2389 1604 q 2217 1500 2222 1469 q 2244 1569 2211 1531 q 2258 1583 2251 1578 q 2250 1576 2256 1581 q 2224 1556 2228 1558 q 2217 1557 2219 1554 q 2213 1563 2215 1561 q 2201 1568 2210 1565 q 2181 1571 2193 1571 q 2146 1576 2165 1572 q 2105 1584 2126 1579 q 2071 1592 2083 1589 q 1744 1578 1907 1606 q 1039 1282 1103 1486 q 1056 1140 1013 1199 q 1196 1056 1100 1082 q 1397 1015 1292 1029 q 1624 1003 1501 1001 q 1817 1010 1747 1006 q 1938 1019 1886 1014 q 1951 986 1971 1022 q 1885 914 1928 943 q 1865 904 1874 906 q 1475 803 1665 863 q 1095 660 1285 743 q 731 466 906 578 q 415 221 556 354 q 316 110 363 171 q 231 -19 269 50 q 177 -155 192 -87 q 172 -281 163 -222 q 233 -385 181 -339 q 379 -453 286 -431 q 1367 -339 767 -542 q 1995 -40 1701 -232 q 2521 417 2289 153 z "},"F":{"ha":1969,"x_min":67,"x_max":1946,"o":"m 1869 613 q 1918 563 1893 614 q 1926 499 1946 508 l 1921 497 l 1515 482 q 1447 226 1478 356 q 1319 -712 1328 -236 q 1285 -703 1319 -742 q 1242 -628 1243 -657 q 1331 135 1247 -242 q 1411 479 1363 301 l 1106 468 q 1057 518 1082 467 q 1049 583 1031 572 q 1054 585 1051 583 l 1444 597 q 1538 885 1493 758 q 1710 1301 1596 1046 q 1727 1340 1711 1306 q 1748 1387 1743 1375 q 1762 1429 1753 1399 q 1769 1477 1771 1460 q 1760 1517 1768 1494 q 1733 1558 1751 1540 q 1671 1593 1711 1581 q 1597 1610 1631 1606 q 1504 1612 1563 1614 q 1426 1608 1446 1610 q 1354 1601 1406 1607 q 839 1478 1089 1572 q 396 1260 603 1396 q 239 1133 311 1204 q 203 1098 217 1111 q 181 1070 190 1085 q 167 1049 172 1056 q 167 1032 163 1042 q 176 1018 171 1022 q 199 1006 181 1014 q 231 994 217 999 q 278 981 244 990 q 303 972 294 975 q 354 900 332 964 q 356 857 369 854 q 324 866 353 857 q 287 878 294 875 q 251 890 279 881 q 213 904 224 899 q 178 922 201 910 q 144 943 154 933 q 117 967 133 953 q 92 996 100 982 q 78 1028 85 1010 q 69 1067 71 1047 q 79 1128 68 1097 q 115 1190 90 1160 q 162 1244 139 1219 q 222 1296 185 1268 q 278 1338 258 1324 q 329 1374 297 1351 q 490 1467 392 1415 q 717 1572 588 1518 q 983 1669 847 1625 q 1258 1732 1119 1713 q 1511 1740 1396 1751 q 1714 1668 1626 1729 q 1835 1496 1801 1607 q 1847 1428 1846 1463 q 1844 1367 1847 1393 q 1827 1301 1840 1340 q 1805 1242 1814 1263 q 1776 1180 1796 1222 q 1749 1121 1756 1138 q 1551 601 1636 867 l 1869 613 z "},"G":{"ha":1290,"x_min":67,"x_max":1269,"o":"m 1204 192 q 1233 183 1236 206 q 1185 106 1229 151 q 1158 83 1169 89 q 1144 77 1151 81 q 1130 70 1138 74 q 1117 64 1122 67 q 1056 -125 1088 -39 q 982 -304 1025 -211 q 881 -478 939 -397 q 754 -621 824 -558 q 654 -689 714 -657 q 524 -740 594 -721 q 385 -761 453 -760 q 258 -733 318 -762 q 165 -642 199 -703 q 149 -583 150 -614 q 158 -523 149 -551 q 189 -462 167 -494 q 234 -403 211 -429 q 292 -347 257 -378 q 353 -295 328 -315 q 418 -248 379 -275 q 476 -208 457 -221 q 525 -175 494 -196 q 532 -171 529 -172 q 538 -167 535 -169 q 544 -162 542 -165 q 1033 111 781 -11 q 1069 282 1039 138 q 1094 410 1083 346 q 829 69 982 207 q 500 -96 676 -69 q 336 -84 410 -108 q 215 -8 263 -60 q 135 117 168 44 q 88 272 101 190 q 70 440 74 354 q 76 602 67 525 q 101 742 85 679 q 229 1071 147 910 q 436 1376 311 1232 q 706 1601 561 1519 q 822 1647 764 1635 q 930 1650 881 1658 q 1026 1617 979 1642 q 1106 1553 1072 1593 q 1169 1466 1140 1514 q 1212 1361 1197 1418 q 1231 1244 1226 1304 q 1224 1121 1236 1183 q 1165 1053 1219 1090 q 1107 1042 1113 1018 q 1107 1053 1106 1046 q 1097 1246 1122 1143 q 1015 1426 1072 1349 q 874 1533 958 1503 q 689 1508 790 1564 q 525 1381 603 1463 q 390 1203 447 1300 q 289 1008 332 1107 q 219 810 246 908 q 183 608 192 711 q 189 398 175 504 q 256 200 203 292 q 400 56 310 108 q 583 15 494 3 q 752 92 672 28 q 899 247 832 156 q 1019 443 967 338 q 1104 644 1071 549 q 1150 813 1138 740 q 1206 879 1156 842 q 1268 893 1260 919 q 1268 882 1268 888 q 1143 163 1236 517 q 1172 176 1151 167 q 1204 192 1193 186 m 692 -589 q 806 -477 754 -544 q 895 -326 857 -410 q 960 -162 933 -243 q 1011 14 988 -82 q 528 -257 760 -106 q 494 -278 518 -262 q 452 -305 469 -293 q 408 -335 435 -317 q 365 -369 382 -353 q 327 -405 347 -385 q 297 -444 307 -425 q 280 -483 286 -462 q 279 -525 274 -504 q 300 -565 285 -546 q 416 -633 340 -615 q 567 -636 492 -650 q 692 -589 643 -622 z "},"H":{"ha":1349,"x_min":-49,"x_max":1636,"o":"m 1604 989 q 1633 981 1636 1003 q 1585 903 1629 949 q 1557 881 1569 886 q 1231 742 1415 822 q 1090 110 1185 535 q 946 -531 994 -314 q 885 -597 939 -560 q 828 -610 833 -632 q 829 -599 828 -606 q 901 -275 861 -453 q 972 46 940 -97 q 1045 370 1004 189 q 1117 692 1086 551 q 492 407 865 581 q 385 -67 438 171 q 324 -133 378 -97 q 267 -146 272 -169 q 267 -136 265 -142 q 376 354 322 110 q -15 174 181 264 q -44 181 -47 160 q 4 261 -40 214 q 31 282 19 276 q 399 451 214 367 q 606 1392 531 1043 q 665 1460 611 1422 q 724 1471 718 1494 q 722 1461 724 1467 q 513 504 649 1110 q 1139 789 892 679 q 1342 1719 1243 1254 q 1401 1788 1347 1750 q 1460 1799 1454 1822 q 1458 1789 1460 1794 q 1251 839 1357 1313 q 1604 989 1428 915 z "},"I":{"ha":744,"x_min":28,"x_max":786,"o":"m 526 1656 q 655 1688 603 1686 q 733 1664 707 1689 q 772 1594 758 1639 q 784 1491 785 1550 q 781 1364 783 1432 q 333 -549 726 368 q 269 -607 321 -576 q 219 -608 218 -637 q 224 -590 219 -601 q 617 831 511 94 q 637 951 622 868 q 660 1091 651 1033 q 676 1224 668 1149 q 683 1364 685 1299 q 668 1483 681 1429 q 652 1533 663 1513 q 626 1562 642 1553 q 595 1574 611 1571 q 557 1573 579 1578 q 514 1560 535 1568 q 465 1540 493 1553 q 90 1296 261 1443 q 33 1286 39 1254 q 61 1354 28 1315 q 76 1368 68 1363 q 526 1656 281 1544 z "},"Ì":{"ha":744,"x_min":28,"x_max":786,"o":"m 526 1656 q 655 1688 603 1686 q 733 1664 707 1689 q 772 1594 758 1639 q 784 1491 785 1550 q 781 1364 783 1432 q 333 -549 726 368 q 269 -607 321 -576 q 219 -608 218 -637 q 224 -590 219 -601 q 617 831 511 94 q 637 951 622 868 q 660 1091 651 1033 q 676 1224 668 1149 q 683 1364 685 1299 q 668 1483 681 1429 q 652 1533 663 1513 q 626 1562 642 1553 q 595 1574 611 1571 q 557 1573 579 1578 q 514 1560 535 1568 q 465 1540 493 1553 q 90 1296 261 1443 q 33 1286 39 1254 q 61 1354 28 1315 q 76 1368 68 1363 q 526 1656 281 1544 z "},"Í":{"ha":744,"x_min":28,"x_max":786,"o":"m 526 1656 q 655 1688 603 1686 q 733 1664 707 1689 q 772 1594 758 1639 q 784 1491 785 1550 q 781 1364 783 1432 q 333 -549 726 368 q 269 -607 321 -576 q 219 -608 218 -637 q 224 -590 219 -601 q 617 831 511 94 q 637 951 622 868 q 660 1091 651 1033 q 676 1224 668 1149 q 683 1364 685 1299 q 668 1483 681 1429 q 652 1533 663 1513 q 626 1562 642 1553 q 595 1574 611 1571 q 557 1573 579 1578 q 514 1560 535 1568 q 465 1540 493 1553 q 90 1296 261 1443 q 33 1286 39 1254 q 61 1354 28 1315 q 76 1368 68 1363 q 526 1656 281 1544 z "},"Î":{"ha":744,"x_min":28,"x_max":786,"o":"m 526 1656 q 655 1688 603 1686 q 733 1664 707 1689 q 772 1594 758 1639 q 784 1491 785 1550 q 781 1364 783 1432 q 333 -549 726 368 q 269 -607 321 -576 q 219 -608 218 -637 q 224 -590 219 -601 q 617 831 511 94 q 637 951 622 868 q 660 1091 651 1033 q 676 1224 668 1149 q 683 1364 685 1299 q 668 1483 681 1429 q 652 1533 663 1513 q 626 1562 642 1553 q 595 1574 611 1571 q 557 1573 579 1578 q 514 1560 535 1568 q 465 1540 493 1553 q 90 1296 261 1443 q 33 1286 39 1254 q 61 1354 28 1315 q 76 1368 68 1363 q 526 1656 281 1544 z "},"Ï":{"ha":744,"x_min":28,"x_max":786,"o":"m 526 1656 q 655 1688 603 1686 q 733 1664 707 1689 q 772 1594 758 1639 q 784 1491 785 1550 q 781 1364 783 1432 q 333 -549 726 368 q 269 -607 321 -576 q 219 -608 218 -637 q 224 -590 219 -601 q 617 831 511 94 q 637 951 622 868 q 660 1091 651 1033 q 676 1224 668 1149 q 683 1364 685 1299 q 668 1483 681 1429 q 652 1533 663 1513 q 626 1562 642 1553 q 595 1574 611 1571 q 557 1573 579 1578 q 514 1560 535 1568 q 465 1540 493 1553 q 90 1296 261 1443 q 33 1286 39 1254 q 61 1354 28 1315 q 76 1368 68 1363 q 526 1656 281 1544 z "},"J":{"ha":1354,"x_min":69,"x_max":1535,"o":"m 1514 835 q 1533 821 1535 838 q 1483 746 1529 790 q 1442 719 1458 722 q 1244 681 1349 704 q 963 -107 1146 272 q 926 -183 944 -146 q 873 -281 907 -219 q 807 -394 839 -342 q 731 -508 775 -447 q 644 -613 686 -568 q 553 -696 603 -658 q 456 -750 503 -733 q 357 -760 408 -767 q 258 -718 306 -753 q 151 -588 196 -671 q 88 -413 107 -506 q 69 -228 69 -321 q 89 -61 69 -135 q 490 450 163 224 q 1150 753 796 656 q 1163 1353 1210 1051 q 1145 1426 1156 1390 q 1119 1499 1135 1463 q 1083 1565 1103 1535 q 1037 1622 1064 1596 q 979 1665 1010 1649 q 910 1688 949 1682 q 828 1689 871 1694 q 357 1306 607 1657 q 285 1256 336 1274 q 249 1263 246 1242 q 264 1292 250 1272 q 814 1779 536 1676 q 986 1801 908 1813 q 1124 1741 1064 1790 q 1222 1619 1183 1692 q 1278 1457 1260 1546 q 1265 785 1336 1119 q 1514 835 1392 815 m 954 88 q 1129 651 1063 363 q 564 415 831 572 q 192 -75 224 210 q 197 -265 182 -160 q 258 -472 211 -369 q 376 -617 306 -574 q 451 -640 413 -639 q 525 -622 489 -642 q 596 -573 561 -601 q 665 -496 631 -544 q 728 -403 699 -447 q 787 -298 757 -360 q 838 -193 817 -236 q 883 -90 858 -150 q 919 -3 908 -31 q 946 67 929 25 q 954 88 951 82 z "},"K":{"ha":783,"x_min":69,"x_max":1689,"o":"m 418 643 q 303 611 361 624 l 294 543 q 342 474 331 493 q 672 -53 503 208 q 1038 -585 890 -386 q 1071 -634 1047 -599 q 1116 -699 1094 -669 q 1164 -762 1138 -729 q 1219 -817 1190 -796 q 1272 -840 1247 -837 q 1265 -893 1299 -844 q 1190 -954 1229 -946 l 1178 -956 q 1115 -928 1147 -951 q 1051 -867 1082 -904 q 997 -796 1021 -829 q 946 -721 974 -762 q 907 -664 918 -679 q 483 -36 733 -426 q 268 307 356 164 l 189 -394 q 133 -461 185 -424 q 72 -475 81 -499 q 71 -462 69 -469 l 176 461 q 162 486 171 471 q 145 514 153 501 q 131 538 138 526 q 111 572 125 549 q 92 605 97 594 q 78 635 86 615 q 69 666 69 654 q 72 694 69 678 q 86 726 75 711 q 117 756 97 740 q 171 778 153 786 q 210 758 189 768 l 329 1814 q 385 1881 333 1844 q 446 1894 438 1918 q 447 1882 447 1890 q 315 728 381 1306 q 450 746 385 724 q 938 1017 658 810 q 1103 1143 1032 1086 q 1282 1303 1175 1200 q 1452 1497 1389 1407 q 1549 1698 1515 1586 q 1551 1907 1582 1810 q 1593 1979 1542 1936 q 1664 2006 1642 2021 l 1669 1997 q 1688 1883 1688 1942 q 1672 1767 1689 1825 q 1630 1653 1656 1710 q 1565 1540 1604 1597 q 1485 1431 1525 1482 q 1392 1326 1444 1379 q 1295 1230 1339 1272 q 1197 1141 1251 1188 q 1105 1065 1142 1094 q 1024 999 1068 1035 q 418 643 690 736 z "},"L":{"ha":1358,"x_min":54,"x_max":2192,"o":"m 2158 -64 q 2188 -74 2190 -51 q 2139 -153 2183 -107 q 2113 -172 2124 -168 q 1838 -256 1982 -229 q 1553 -280 1693 -282 q 1266 -253 1414 -278 q 982 -186 1118 -228 q 708 -86 846 -144 q 267 -104 501 -237 q 185 -44 225 -79 q 112 36 146 -10 q 66 131 78 82 q 68 233 54 181 q 133 324 81 293 q 244 339 185 356 q 315 304 275 331 q 398 244 354 278 q 464 199 442 211 q 739 57 597 121 q 742 55 740 56 q 746 54 744 54 q 803 132 776 90 q 940 381 874 247 q 1055 633 1006 515 q 1157 912 1104 750 q 1242 1181 1210 1074 q 1319 1468 1274 1288 q 1386 1738 1365 1649 q 1450 2015 1407 1828 q 1512 2082 1457 2046 q 1569 2093 1567 2118 q 1568 2083 1569 2089 q 1333 1224 1474 1678 q 1289 1074 1325 1196 q 1228 869 1253 951 q 1154 652 1203 788 q 1060 417 1106 517 q 952 207 1015 317 q 824 21 889 97 q 1192 -100 1003 -53 q 2158 -64 1754 -237 m 338 28 q 615 -44 499 -85 q 446 40 525 -3 q 261 149 351 90 q 234 166 251 154 q 213 181 217 178 q 338 28 254 88 z "},"M":{"ha":1488,"x_min":50,"x_max":1714,"o":"m 1635 10 q 1685 25 1660 53 q 1703 -60 1714 -7 q 1694 -86 1700 -74 q 1636 -183 1672 -131 q 1552 -289 1600 -235 q 1451 -380 1504 -343 q 1346 -432 1397 -417 q 1246 -419 1294 -447 q 1165 -317 1197 -392 q 1131 -202 1142 -267 q 1118 -80 1119 -137 q 1123 53 1117 -22 q 1137 182 1129 129 q 1156 312 1144 235 q 1172 426 1168 389 q 1294 1221 1219 793 q 899 129 1043 494 q 879 76 893 117 q 757 -176 808 -133 q 646 -119 699 -226 q 626 -69 633 -94 q 615 -8 618 -43 q 610 45 611 26 q 607 108 608 64 q 606 161 606 153 q 608 751 599 358 q 622 1183 613 929 q 438 613 529 899 q 150 -294 293 160 q 103 -271 143 -317 q 51 -171 51 -212 q 53 -161 51 -165 q 342 747 196 293 q 546 1381 474 1161 q 569 1467 553 1403 q 602 1581 585 1532 q 643 1660 619 1629 q 688 1650 660 1683 q 728 1589 717 1617 q 744 1517 742 1556 q 740 1416 746 1478 q 733 1342 735 1354 q 713 771 719 1018 q 704 224 703 433 q 707 65 704 138 q 763 165 758 157 q 925 588 825 317 q 1489 2207 1171 1254 q 1538 2179 1497 2232 q 1586 2078 1586 2117 q 1585 2072 1586 2075 q 1331 708 1435 1364 q 1233 -135 1254 290 q 1272 -286 1226 -217 q 1352 -293 1303 -315 q 1458 -214 1401 -271 q 1563 -97 1515 -157 q 1635 10 1610 -36 z "},"N":{"ha":1706,"x_min":38,"x_max":1729,"o":"m 1626 2161 q 1668 2153 1626 2196 q 1726 2060 1717 2103 q 1728 2049 1728 2054 q 1679 1233 1725 1672 q 1678 1224 1679 1231 q 1663 1090 1669 1144 q 1640 915 1657 1036 q 1605 703 1624 793 q 1558 483 1586 613 q 1493 262 1529 354 q 1413 67 1457 169 q 1311 -96 1368 -35 q 1188 -199 1254 -157 q 1040 -237 1122 -242 q 867 -185 957 -233 q 741 -85 796 -146 q 651 51 686 -25 q 594 206 617 128 q 559 376 571 283 q 542 540 547 468 q 536 696 538 613 q 546 1014 533 844 q 425 642 436 675 q 138 -265 281 189 q 90 -242 131 -287 q 39 -142 39 -183 q 40 -132 39 -136 q 329 776 183 322 q 533 1408 461 1189 q 556 1496 540 1432 q 590 1608 572 1560 q 631 1689 607 1657 q 676 1678 647 1711 q 717 1617 704 1644 q 728 1556 726 1590 q 724 1494 729 1521 q 710 1426 719 1467 q 699 1367 701 1386 q 640 785 654 1078 q 1039 -68 599 -193 q 1139 -19 1092 -53 q 1220 54 1186 15 q 1288 152 1254 93 q 1342 258 1321 211 q 1385 374 1363 304 q 1419 483 1408 444 q 1447 586 1431 521 q 1626 2161 1621 1236 z "},"Ñ":{"ha":1706,"x_min":38,"x_max":1729,"o":"m 1626 2161 q 1668 2153 1626 2196 q 1726 2060 1717 2103 q 1728 2049 1728 2054 q 1679 1233 1725 1672 q 1678 1224 1679 1231 q 1663 1090 1669 1144 q 1640 915 1657 1036 q 1605 703 1624 793 q 1558 483 1586 613 q 1493 262 1529 354 q 1413 67 1457 169 q 1311 -96 1368 -35 q 1188 -199 1254 -157 q 1040 -237 1122 -242 q 867 -185 957 -233 q 741 -85 796 -146 q 651 51 686 -25 q 594 206 617 128 q 559 376 571 283 q 542 540 547 468 q 536 696 538 613 q 546 1014 533 844 q 425 642 436 675 q 138 -265 281 189 q 90 -242 131 -287 q 39 -142 39 -183 q 40 -132 39 -136 q 329 776 183 322 q 533 1408 461 1189 q 556 1496 540 1432 q 590 1608 572 1560 q 631 1689 607 1657 q 676 1678 647 1711 q 717 1617 704 1644 q 728 1556 726 1590 q 724 1494 729 1521 q 710 1426 719 1467 q 699 1367 701 1386 q 640 785 654 1078 q 1039 -68 599 -193 q 1139 -19 1092 -53 q 1220 54 1186 15 q 1288 152 1254 93 q 1342 258 1321 211 q 1385 374 1363 304 q 1419 483 1408 444 q 1447 586 1431 521 q 1626 2161 1621 1236 z "},"O":{"ha":1500,"x_min":67,"x_max":1625,"o":"m 1482 1549 q 1569 1611 1507 1585 q 1624 1607 1624 1635 q 1604 1567 1624 1593 q 1399 1294 1508 1425 q 1446 997 1442 1149 q 1431 763 1449 883 q 1375 521 1414 642 q 1280 290 1336 400 q 1143 89 1224 181 q 968 -65 1063 -3 q 752 -153 874 -128 q 497 -158 631 -179 q 321 -100 396 -142 q 202 0 246 -58 q 135 137 158 58 q 108 298 111 215 q 115 477 104 381 q 147 662 126 574 q 197 846 168 750 q 100 986 132 901 q 69 1165 68 1071 q 96 1361 71 1258 q 166 1558 121 1464 q 270 1736 211 1653 q 394 1875 329 1819 q 578 1990 486 1953 q 752 2022 671 2026 q 912 1982 833 2017 q 1056 1887 990 1947 q 1181 1747 1122 1826 q 1286 1578 1240 1667 q 1367 1392 1332 1489 q 1482 1549 1429 1471 m 310 1633 q 235 1451 263 1546 q 214 1247 208 1356 q 272 1061 219 1139 q 364 1282 313 1167 q 440 1354 378 1315 q 513 1365 507 1396 q 506 1338 514 1356 q 361 974 411 1121 q 510 913 426 928 q 675 908 593 897 q 833 950 757 918 q 1239 1246 1065 1057 q 944 1733 1163 1532 q 713 1854 833 1831 q 487 1821 593 1878 q 310 1633 381 1764 m 553 6 q 768 -19 671 -28 q 943 36 865 -10 q 1080 154 1021 82 q 1181 317 1139 226 q 1248 510 1222 408 q 1284 717 1274 613 q 1292 922 1294 822 q 1272 1107 1289 1021 q 1267 1130 1271 1114 q 1264 1147 1264 1146 q 482 750 856 733 q 304 785 390 753 q 553 6 135 126 z "},"Ò":{"ha":1500,"x_min":67,"x_max":1625,"o":"m 1482 1549 q 1569 1611 1507 1585 q 1624 1607 1624 1635 q 1604 1567 1624 1593 q 1399 1294 1508 1425 q 1446 997 1442 1149 q 1431 763 1449 883 q 1375 521 1414 642 q 1280 290 1336 400 q 1143 89 1224 181 q 968 -65 1063 -3 q 752 -153 874 -128 q 497 -158 631 -179 q 321 -100 396 -142 q 202 0 246 -58 q 135 137 158 58 q 108 298 111 215 q 115 477 104 381 q 147 662 126 574 q 197 846 168 750 q 100 986 132 901 q 69 1165 68 1071 q 96 1361 71 1258 q 166 1558 121 1464 q 270 1736 211 1653 q 394 1875 329 1819 q 578 1990 486 1953 q 752 2022 671 2026 q 912 1982 833 2017 q 1056 1887 990 1947 q 1181 1747 1122 1826 q 1286 1578 1240 1667 q 1367 1392 1332 1489 q 1482 1549 1429 1471 m 310 1633 q 235 1451 263 1546 q 214 1247 208 1356 q 272 1061 219 1139 q 364 1282 313 1167 q 440 1354 378 1315 q 513 1365 507 1396 q 506 1338 514 1356 q 361 974 411 1121 q 510 913 426 928 q 675 908 593 897 q 833 950 757 918 q 1239 1246 1065 1057 q 944 1733 1163 1532 q 713 1854 833 1831 q 487 1821 593 1878 q 310 1633 381 1764 m 553 6 q 768 -19 671 -28 q 943 36 865 -10 q 1080 154 1021 82 q 1181 317 1139 226 q 1248 510 1222 408 q 1284 717 1274 613 q 1292 922 1294 822 q 1272 1107 1289 1021 q 1267 1130 1271 1114 q 1264 1147 1264 1146 q 482 750 856 733 q 304 785 390 753 q 553 6 135 126 z "},"Ó":{"ha":1500,"x_min":67,"x_max":1625,"o":"m 1482 1549 q 1569 1611 1507 1585 q 1624 1607 1624 1635 q 1604 1567 1624 1593 q 1399 1294 1508 1425 q 1446 997 1442 1149 q 1431 763 1449 883 q 1375 521 1414 642 q 1280 290 1336 400 q 1143 89 1224 181 q 968 -65 1063 -3 q 752 -153 874 -128 q 497 -158 631 -179 q 321 -100 396 -142 q 202 0 246 -58 q 135 137 158 58 q 108 298 111 215 q 115 477 104 381 q 147 662 126 574 q 197 846 168 750 q 100 986 132 901 q 69 1165 68 1071 q 96 1361 71 1258 q 166 1558 121 1464 q 270 1736 211 1653 q 394 1875 329 1819 q 578 1990 486 1953 q 752 2022 671 2026 q 912 1982 833 2017 q 1056 1887 990 1947 q 1181 1747 1122 1826 q 1286 1578 1240 1667 q 1367 1392 1332 1489 q 1482 1549 1429 1471 m 310 1633 q 235 1451 263 1546 q 214 1247 208 1356 q 272 1061 219 1139 q 364 1282 313 1167 q 440 1354 378 1315 q 513 1365 507 1396 q 506 1338 514 1356 q 361 974 411 1121 q 510 913 426 928 q 675 908 593 897 q 833 950 757 918 q 1239 1246 1065 1057 q 944 1733 1163 1532 q 713 1854 833 1831 q 487 1821 593 1878 q 310 1633 381 1764 m 553 6 q 768 -19 671 -28 q 943 36 865 -10 q 1080 154 1021 82 q 1181 317 1139 226 q 1248 510 1222 408 q 1284 717 1274 613 q 1292 922 1294 822 q 1272 1107 1289 1021 q 1267 1130 1271 1114 q 1264 1147 1264 1146 q 482 750 856 733 q 304 785 390 753 q 553 6 135 126 z "},"Ô":{"ha":1500,"x_min":67,"x_max":1625,"o":"m 1482 1549 q 1569 1611 1507 1585 q 1624 1607 1624 1635 q 1604 1567 1624 1593 q 1399 1294 1508 1425 q 1446 997 1442 1149 q 1431 763 1449 883 q 1375 521 1414 642 q 1280 290 1336 400 q 1143 89 1224 181 q 968 -65 1063 -3 q 752 -153 874 -128 q 497 -158 631 -179 q 321 -100 396 -142 q 202 0 246 -58 q 135 137 158 58 q 108 298 111 215 q 115 477 104 381 q 147 662 126 574 q 197 846 168 750 q 100 986 132 901 q 69 1165 68 1071 q 96 1361 71 1258 q 166 1558 121 1464 q 270 1736 211 1653 q 394 1875 329 1819 q 578 1990 486 1953 q 752 2022 671 2026 q 912 1982 833 2017 q 1056 1887 990 1947 q 1181 1747 1122 1826 q 1286 1578 1240 1667 q 1367 1392 1332 1489 q 1482 1549 1429 1471 m 310 1633 q 235 1451 263 1546 q 214 1247 208 1356 q 272 1061 219 1139 q 364 1282 313 1167 q 440 1354 378 1315 q 513 1365 507 1396 q 506 1338 514 1356 q 361 974 411 1121 q 510 913 426 928 q 675 908 593 897 q 833 950 757 918 q 1239 1246 1065 1057 q 944 1733 1163 1532 q 713 1854 833 1831 q 487 1821 593 1878 q 310 1633 381 1764 m 553 6 q 768 -19 671 -28 q 943 36 865 -10 q 1080 154 1021 82 q 1181 317 1139 226 q 1248 510 1222 408 q 1284 717 1274 613 q 1292 922 1294 822 q 1272 1107 1289 1021 q 1267 1130 1271 1114 q 1264 1147 1264 1146 q 482 750 856 733 q 304 785 390 753 q 553 6 135 126 z "},"Õ":{"ha":1500,"x_min":67,"x_max":1625,"o":"m 1482 1549 q 1569 1611 1507 1585 q 1624 1607 1624 1635 q 1604 1567 1624 1593 q 1399 1294 1508 1425 q 1446 997 1442 1149 q 1431 763 1449 883 q 1375 521 1414 642 q 1280 290 1336 400 q 1143 89 1224 181 q 968 -65 1063 -3 q 752 -153 874 -128 q 497 -158 631 -179 q 321 -100 396 -142 q 202 0 246 -58 q 135 137 158 58 q 108 298 111 215 q 115 477 104 381 q 147 662 126 574 q 197 846 168 750 q 100 986 132 901 q 69 1165 68 1071 q 96 1361 71 1258 q 166 1558 121 1464 q 270 1736 211 1653 q 394 1875 329 1819 q 578 1990 486 1953 q 752 2022 671 2026 q 912 1982 833 2017 q 1056 1887 990 1947 q 1181 1747 1122 1826 q 1286 1578 1240 1667 q 1367 1392 1332 1489 q 1482 1549 1429 1471 m 310 1633 q 235 1451 263 1546 q 214 1247 208 1356 q 272 1061 219 1139 q 364 1282 313 1167 q 440 1354 378 1315 q 513 1365 507 1396 q 506 1338 514 1356 q 361 974 411 1121 q 510 913 426 928 q 675 908 593 897 q 833 950 757 918 q 1239 1246 1065 1057 q 944 1733 1163 1532 q 713 1854 833 1831 q 487 1821 593 1878 q 310 1633 381 1764 m 553 6 q 768 -19 671 -28 q 943 36 865 -10 q 1080 154 1021 82 q 1181 317 1139 226 q 1248 510 1222 408 q 1284 717 1274 613 q 1292 922 1294 822 q 1272 1107 1289 1021 q 1267 1130 1271 1114 q 1264 1147 1264 1146 q 482 750 856 733 q 304 785 390 753 q 553 6 135 126 z "},"Ö":{"ha":1500,"x_min":67,"x_max":1625,"o":"m 1482 1549 q 1569 1611 1507 1585 q 1624 1607 1624 1635 q 1604 1567 1624 1593 q 1399 1294 1508 1425 q 1446 997 1442 1149 q 1431 763 1449 883 q 1375 521 1414 642 q 1280 290 1336 400 q 1143 89 1224 181 q 968 -65 1063 -3 q 752 -153 874 -128 q 497 -158 631 -179 q 321 -100 396 -142 q 202 0 246 -58 q 135 137 158 58 q 108 298 111 215 q 115 477 104 381 q 147 662 126 574 q 197 846 168 750 q 100 986 132 901 q 69 1165 68 1071 q 96 1361 71 1258 q 166 1558 121 1464 q 270 1736 211 1653 q 394 1875 329 1819 q 578 1990 486 1953 q 752 2022 671 2026 q 912 1982 833 2017 q 1056 1887 990 1947 q 1181 1747 1122 1826 q 1286 1578 1240 1667 q 1367 1392 1332 1489 q 1482 1549 1429 1471 m 310 1633 q 235 1451 263 1546 q 214 1247 208 1356 q 272 1061 219 1139 q 364 1282 313 1167 q 440 1354 378 1315 q 513 1365 507 1396 q 506 1338 514 1356 q 361 974 411 1121 q 510 913 426 928 q 675 908 593 897 q 833 950 757 918 q 1239 1246 1065 1057 q 944 1733 1163 1532 q 713 1854 833 1831 q 487 1821 593 1878 q 310 1633 381 1764 m 553 6 q 768 -19 671 -28 q 943 36 865 -10 q 1080 154 1021 82 q 1181 317 1139 226 q 1248 510 1222 408 q 1284 717 1274 613 q 1292 922 1294 822 q 1272 1107 1289 1021 q 1267 1130 1271 1114 q 1264 1147 1264 1146 q 482 750 856 733 q 304 785 390 753 q 553 6 135 126 z "},"Ø":{"ha":1500,"x_min":67,"x_max":1625,"o":"m 1482 1549 q 1569 1611 1507 1585 q 1624 1607 1624 1635 q 1604 1567 1624 1593 q 1399 1294 1508 1425 q 1446 997 1442 1149 q 1431 763 1449 883 q 1375 521 1414 642 q 1280 290 1336 400 q 1143 89 1224 181 q 968 -65 1063 -3 q 752 -153 874 -128 q 497 -158 631 -179 q 321 -100 396 -142 q 202 0 246 -58 q 135 137 158 58 q 108 298 111 215 q 115 477 104 381 q 147 662 126 574 q 197 846 168 750 q 100 986 132 901 q 69 1165 68 1071 q 96 1361 71 1258 q 166 1558 121 1464 q 270 1736 211 1653 q 394 1875 329 1819 q 578 1990 486 1953 q 752 2022 671 2026 q 912 1982 833 2017 q 1056 1887 990 1947 q 1181 1747 1122 1826 q 1286 1578 1240 1667 q 1367 1392 1332 1489 q 1482 1549 1429 1471 m 310 1633 q 235 1451 263 1546 q 214 1247 208 1356 q 272 1061 219 1139 q 364 1282 313 1167 q 440 1354 378 1315 q 513 1365 507 1396 q 506 1338 514 1356 q 361 974 411 1121 q 510 913 426 928 q 675 908 593 897 q 833 950 757 918 q 1239 1246 1065 1057 q 944 1733 1163 1532 q 713 1854 833 1831 q 487 1821 593 1878 q 310 1633 381 1764 m 553 6 q 768 -19 671 -28 q 943 36 865 -10 q 1080 154 1021 82 q 1181 317 1139 226 q 1248 510 1222 408 q 1284 717 1274 613 q 1292 922 1294 822 q 1272 1107 1289 1021 q 1267 1130 1271 1114 q 1264 1147 1264 1146 q 482 750 856 733 q 304 785 390 753 q 553 6 135 126 z "},"P":{"ha":1022,"x_min":64,"x_max":1672,"o":"m 1211 1811 q 1380 1756 1301 1789 q 1527 1672 1458 1724 q 1634 1560 1596 1621 q 1672 1417 1672 1499 q 1621 1243 1671 1335 q 1538 1116 1586 1178 q 1427 997 1489 1054 q 1310 893 1365 939 q 1176 794 1254 847 q 1047 709 1099 742 q 915 626 996 676 q 667 483 800 556 l 556 -497 q 500 -564 553 -526 q 439 -578 447 -601 q 438 -565 438 -574 l 550 421 q 338 317 431 360 q 308 324 306 301 q 358 403 314 357 q 383 424 374 419 q 560 507 472 465 l 661 1392 q 717 1458 664 1421 q 778 1472 768 1496 q 778 1460 779 1467 l 676 565 q 1453 1124 1207 835 q 1541 1283 1522 1206 q 1535 1422 1560 1361 q 1452 1535 1510 1482 q 1318 1626 1394 1589 q 1151 1689 1242 1663 q 619 1702 896 1758 q 128 1488 342 1646 q 69 1479 76 1449 q 99 1546 64 1508 q 114 1560 106 1554 q 644 1806 349 1735 q 1211 1811 939 1878 z "},"Q":{"ha":1707,"x_min":61,"x_max":1893,"o":"m 1833 33 q 1890 29 1893 65 q 1843 -61 1889 -10 q 1811 -89 1825 -81 q 1563 -167 1696 -153 q 1307 -155 1429 -182 q 1058 -68 1185 -128 q 911 -171 986 -129 q 753 -235 836 -212 q 588 -253 669 -257 q 421 -211 507 -249 q 257 -104 335 -174 q 109 90 156 -14 q 70 300 63 193 q 117 510 78 407 q 231 721 157 614 q 104 1249 82 964 q 172 1523 118 1389 q 322 1772 225 1657 q 544 1944 419 1886 q 769 1986 660 1993 q 978 1924 878 1979 q 1159 1788 1079 1868 q 1299 1608 1239 1707 q 1474 1083 1438 1363 q 1439 531 1511 803 q 1196 72 1368 274 q 1257 44 1244 50 q 1450 -6 1346 11 q 1660 -14 1554 -22 q 1833 33 1765 -6 m 254 1313 q 360 889 244 1085 q 908 1365 603 1163 q 961 1367 964 1403 q 914 1272 958 1326 q 886 1244 899 1253 q 399 822 554 1025 q 643 508 510 657 q 1129 104 849 263 q 1248 342 1201 203 q 1311 624 1294 482 q 1322 903 1328 765 q 1289 1147 1317 1040 q 1222 1342 1263 1247 q 1123 1526 1181 1436 q 986 1686 1065 1615 q 814 1796 907 1757 q 584 1826 685 1847 q 413 1724 483 1804 q 302 1538 342 1644 q 254 1313 263 1432 m 565 -62 q 988 -32 808 -147 q 631 233 792 76 q 286 631 438 414 q 242 351 229 496 q 342 97 254 208 q 565 -62 431 -15 z "},"R":{"ha":1678,"x_min":11,"x_max":1868,"o":"m 1689 78 q 1733 72 1735 101 q 1692 0 1731 39 q 1671 -17 1681 -11 q 1293 -128 1486 -114 q 928 -82 1100 -142 q 604 103 756 -22 l 542 -449 q 486 -515 539 -479 q 425 -529 435 -554 q 425 -517 424 -525 l 506 194 q 329 425 404 300 q 335 473 317 446 q 382 518 353 500 q 431 535 411 536 q 544 533 481 533 l 607 1092 q 663 1160 611 1122 q 724 1172 715 1197 q 725 1161 726 1168 l 654 536 q 831 548 744 539 q 1013 574 918 557 q 1194 616 1108 590 q 1362 676 1279 642 q 1511 760 1444 711 q 1630 867 1578 808 q 1713 1004 1682 926 q 1747 1171 1743 1082 q 1717 1350 1751 1268 q 1622 1488 1682 1432 q 1480 1586 1563 1544 q 1312 1649 1397 1628 q 1136 1678 1226 1671 q 892 1672 1014 1686 q 654 1617 771 1657 q 438 1513 538 1576 q 258 1356 339 1450 q 128 1149 176 1263 q 64 1089 117 1119 q 14 1088 13 1060 q 19 1106 14 1094 q 347 1532 126 1361 q 846 1765 567 1703 q 1079 1796 960 1790 q 1321 1785 1199 1801 q 1555 1719 1443 1769 q 1746 1586 1667 1668 q 1833 1449 1803 1525 q 1866 1296 1864 1374 q 1849 1138 1868 1218 q 1793 985 1831 1058 q 1706 851 1756 913 q 1492 665 1615 746 q 1226 536 1368 585 q 940 461 1083 488 q 642 425 797 435 l 626 290 q 857 110 733 183 q 1117 1 981 36 q 1400 -15 1253 -33 q 1689 78 1547 3 m 515 419 q 529 401 519 413 l 531 419 q 524 419 529 419 q 515 419 518 419 z "},"S":{"ha":1643,"x_min":57,"x_max":1526,"o":"m 1415 574 q 1509 317 1492 454 q 1490 56 1526 181 q 1369 -180 1453 -69 q 1165 -365 1286 -290 q 814 -463 1007 -462 q 449 -376 621 -464 q 174 -135 278 -287 q 76 105 94 -19 q 91 340 58 229 q 195 559 124 450 q 354 755 267 668 q 546 918 442 842 q 604 925 599 956 q 576 858 610 896 l 560 844 q 408 715 476 783 q 285 563 340 647 q 206 394 231 479 q 191 210 181 308 q 254 17 201 113 q 482 -222 342 -128 q 789 -340 622 -315 q 1058 -323 931 -362 q 1275 -184 1185 -283 q 1394 57 1365 -85 q 1183 626 1451 331 q 696 1036 960 856 q 600 1103 669 1056 q 492 1179 531 1150 q 403 1256 453 1208 q 324 1350 353 1304 q 278 1601 249 1474 q 396 1832 307 1728 q 601 1990 485 1936 q 948 2031 792 2079 q 1212 1849 1104 1983 q 1361 1529 1319 1715 q 1315 1456 1368 1499 q 1247 1431 1265 1415 q 1243 1439 1244 1435 q 1191 1599 1224 1524 q 1108 1742 1158 1675 q 997 1856 1058 1810 q 854 1921 936 1901 q 682 1925 772 1940 q 547 1874 608 1911 q 450 1782 486 1836 q 399 1666 414 1728 q 403 1537 385 1604 q 472 1411 421 1469 q 651 1238 546 1324 q 858 1083 757 1153 q 1061 939 960 1013 q 1257 772 1163 865 q 1415 574 1351 678 z "},"T":{"ha":1136,"x_min":63,"x_max":2238,"o":"m 2126 1710 q 2197 1760 2147 1740 q 2235 1754 2236 1775 q 2221 1724 2235 1744 q 2115 1614 2178 1658 q 1990 1545 2051 1569 q 1842 1513 1929 1521 q 1690 1506 1754 1506 q 1527 1522 1626 1507 q 1375 1547 1428 1536 q 1226 1578 1322 1557 q 1157 1593 1179 1588 q 940 1642 1111 1603 q 657 1700 768 1681 q 435 1728 546 1719 q 412 1731 431 1729 q 380 1733 393 1732 q 344 1735 367 1735 q 306 1735 322 1736 q 270 1733 290 1735 q 235 1728 250 1732 q 208 1717 221 1724 q 187 1701 194 1711 q 175 1679 179 1692 q 169 1653 171 1667 q 170 1623 168 1640 q 175 1591 172 1606 q 183 1557 178 1576 q 193 1524 189 1538 q 205 1492 197 1510 q 217 1463 213 1474 q 228 1437 221 1453 q 236 1415 235 1421 q 199 1344 247 1388 q 125 1317 149 1300 q 118 1325 121 1319 q 73 1489 82 1414 q 81 1619 64 1564 q 133 1717 97 1674 q 223 1786 169 1761 q 342 1826 276 1811 q 483 1840 408 1842 q 638 1831 558 1839 q 1059 1750 788 1810 q 1421 1674 1331 1690 q 1492 1660 1435 1671 q 1584 1642 1549 1649 q 1683 1626 1619 1635 q 1792 1615 1747 1618 q 1893 1615 1836 1613 q 1990 1626 1950 1617 q 2068 1658 2031 1636 q 2126 1710 2106 1679 m 957 1408 q 1013 1476 961 1439 q 1074 1489 1065 1514 q 1075 1478 1076 1485 l 858 -424 q 803 -492 856 -454 q 742 -504 751 -529 q 742 -493 740 -500 l 957 1408 z "},"U":{"ha":1451,"x_min":65,"x_max":1885,"o":"m 1775 6 q 1844 57 1794 38 q 1882 50 1885 74 q 1869 19 1882 39 q 1826 -49 1847 -17 q 1772 -126 1804 -82 q 1708 -206 1740 -169 q 1636 -280 1675 -242 q 1557 -343 1597 -318 q 1474 -385 1517 -368 q 1385 -401 1431 -401 q 1296 -381 1340 -400 q 1244 -349 1268 -368 q 1205 -303 1221 -331 q 1176 -249 1189 -275 q 1156 -185 1164 -224 q 1142 -121 1147 -147 q 1135 -51 1138 -94 q 1132 14 1133 -7 q 1131 78 1131 35 q 1129 133 1131 122 q 1129 317 1128 214 q 1060 112 1096 206 q 973 -78 1024 18 q 855 -256 922 -175 q 707 -393 788 -336 q 538 -470 629 -447 q 363 -483 447 -493 q 208 -418 278 -474 q 106 -267 138 -362 q 76 -128 85 -201 q 70 35 67 -56 q 78 176 74 126 q 96 329 83 226 q 144 672 113 485 q 200 979 176 858 q 268 1318 224 1100 q 281 1375 276 1356 q 340 1442 286 1404 q 397 1454 393 1476 q 397 1443 399 1450 q 353 1239 381 1363 q 305 1022 325 1115 q 260 810 285 929 q 221 587 236 690 q 195 372 206 483 q 186 152 185 261 q 200 -58 188 43 q 247 -208 210 -140 q 342 -318 285 -276 q 465 -374 399 -360 q 606 -364 531 -389 q 747 -274 681 -339 q 840 -162 796 -226 q 915 -37 883 -99 q 976 109 946 24 q 1024 256 1006 194 q 1063 413 1042 317 q 1094 560 1085 508 q 1122 706 1104 611 q 1133 764 1129 744 q 1169 979 1151 861 q 1218 1388 1189 1168 q 1274 1454 1222 1415 q 1335 1467 1326 1494 q 1336 1456 1336 1463 q 1290 1068 1322 1279 q 1257 622 1268 846 q 1260 28 1233 325 q 1304 -175 1264 -78 q 1393 -263 1340 -244 q 1498 -261 1446 -282 q 1605 -194 1550 -240 q 1702 -96 1660 -147 q 1775 6 1744 -44 z "},"Ù":{"ha":1451,"x_min":65,"x_max":1885,"o":"m 1775 6 q 1844 57 1794 38 q 1882 50 1885 74 q 1869 19 1882 39 q 1826 -49 1847 -17 q 1772 -126 1804 -82 q 1708 -206 1740 -169 q 1636 -280 1675 -242 q 1557 -343 1597 -318 q 1474 -385 1517 -368 q 1385 -401 1431 -401 q 1296 -381 1340 -400 q 1244 -349 1268 -368 q 1205 -303 1221 -331 q 1176 -249 1189 -275 q 1156 -185 1164 -224 q 1142 -121 1147 -147 q 1135 -51 1138 -94 q 1132 14 1133 -7 q 1131 78 1131 35 q 1129 133 1131 122 q 1129 317 1128 214 q 1060 112 1096 206 q 973 -78 1024 18 q 855 -256 922 -175 q 707 -393 788 -336 q 538 -470 629 -447 q 363 -483 447 -493 q 208 -418 278 -474 q 106 -267 138 -362 q 76 -128 85 -201 q 70 35 67 -56 q 78 176 74 126 q 96 329 83 226 q 144 672 113 485 q 200 979 176 858 q 268 1318 224 1100 q 281 1375 276 1356 q 340 1442 286 1404 q 397 1454 393 1476 q 397 1443 399 1450 q 353 1239 381 1363 q 305 1022 325 1115 q 260 810 285 929 q 221 587 236 690 q 195 372 206 483 q 186 152 185 261 q 200 -58 188 43 q 247 -208 210 -140 q 342 -318 285 -276 q 465 -374 399 -360 q 606 -364 531 -389 q 747 -274 681 -339 q 840 -162 796 -226 q 915 -37 883 -99 q 976 109 946 24 q 1024 256 1006 194 q 1063 413 1042 317 q 1094 560 1085 508 q 1122 706 1104 611 q 1133 764 1129 744 q 1169 979 1151 861 q 1218 1388 1189 1168 q 1274 1454 1222 1415 q 1335 1467 1326 1494 q 1336 1456 1336 1463 q 1290 1068 1322 1279 q 1257 622 1268 846 q 1260 28 1233 325 q 1304 -175 1264 -78 q 1393 -263 1340 -244 q 1498 -261 1446 -282 q 1605 -194 1550 -240 q 1702 -96 1660 -147 q 1775 6 1744 -44 z "},"Ú":{"ha":1451,"x_min":65,"x_max":1885,"o":"m 1775 6 q 1844 57 1794 38 q 1882 50 1885 74 q 1869 19 1882 39 q 1826 -49 1847 -17 q 1772 -126 1804 -82 q 1708 -206 1740 -169 q 1636 -280 1675 -242 q 1557 -343 1597 -318 q 1474 -385 1517 -368 q 1385 -401 1431 -401 q 1296 -381 1340 -400 q 1244 -349 1268 -368 q 1205 -303 1221 -331 q 1176 -249 1189 -275 q 1156 -185 1164 -224 q 1142 -121 1147 -147 q 1135 -51 1138 -94 q 1132 14 1133 -7 q 1131 78 1131 35 q 1129 133 1131 122 q 1129 317 1128 214 q 1060 112 1096 206 q 973 -78 1024 18 q 855 -256 922 -175 q 707 -393 788 -336 q 538 -470 629 -447 q 363 -483 447 -493 q 208 -418 278 -474 q 106 -267 138 -362 q 76 -128 85 -201 q 70 35 67 -56 q 78 176 74 126 q 96 329 83 226 q 144 672 113 485 q 200 979 176 858 q 268 1318 224 1100 q 281 1375 276 1356 q 340 1442 286 1404 q 397 1454 393 1476 q 397 1443 399 1450 q 353 1239 381 1363 q 305 1022 325 1115 q 260 810 285 929 q 221 587 236 690 q 195 372 206 483 q 186 152 185 261 q 200 -58 188 43 q 247 -208 210 -140 q 342 -318 285 -276 q 465 -374 399 -360 q 606 -364 531 -389 q 747 -274 681 -339 q 840 -162 796 -226 q 915 -37 883 -99 q 976 109 946 24 q 1024 256 1006 194 q 1063 413 1042 317 q 1094 560 1085 508 q 1122 706 1104 611 q 1133 764 1129 744 q 1169 979 1151 861 q 1218 1388 1189 1168 q 1274 1454 1222 1415 q 1335 1467 1326 1494 q 1336 1456 1336 1463 q 1290 1068 1322 1279 q 1257 622 1268 846 q 1260 28 1233 325 q 1304 -175 1264 -78 q 1393 -263 1340 -244 q 1498 -261 1446 -282 q 1605 -194 1550 -240 q 1702 -96 1660 -147 q 1775 6 1744 -44 z "},"Û":{"ha":1451,"x_min":65,"x_max":1885,"o":"m 1775 6 q 1844 57 1794 38 q 1882 50 1885 74 q 1869 19 1882 39 q 1826 -49 1847 -17 q 1772 -126 1804 -82 q 1708 -206 1740 -169 q 1636 -280 1675 -242 q 1557 -343 1597 -318 q 1474 -385 1517 -368 q 1385 -401 1431 -401 q 1296 -381 1340 -400 q 1244 -349 1268 -368 q 1205 -303 1221 -331 q 1176 -249 1189 -275 q 1156 -185 1164 -224 q 1142 -121 1147 -147 q 1135 -51 1138 -94 q 1132 14 1133 -7 q 1131 78 1131 35 q 1129 133 1131 122 q 1129 317 1128 214 q 1060 112 1096 206 q 973 -78 1024 18 q 855 -256 922 -175 q 707 -393 788 -336 q 538 -470 629 -447 q 363 -483 447 -493 q 208 -418 278 -474 q 106 -267 138 -362 q 76 -128 85 -201 q 70 35 67 -56 q 78 176 74 126 q 96 329 83 226 q 144 672 113 485 q 200 979 176 858 q 268 1318 224 1100 q 281 1375 276 1356 q 340 1442 286 1404 q 397 1454 393 1476 q 397 1443 399 1450 q 353 1239 381 1363 q 305 1022 325 1115 q 260 810 285 929 q 221 587 236 690 q 195 372 206 483 q 186 152 185 261 q 200 -58 188 43 q 247 -208 210 -140 q 342 -318 285 -276 q 465 -374 399 -360 q 606 -364 531 -389 q 747 -274 681 -339 q 840 -162 796 -226 q 915 -37 883 -99 q 976 109 946 24 q 1024 256 1006 194 q 1063 413 1042 317 q 1094 560 1085 508 q 1122 706 1104 611 q 1133 764 1129 744 q 1169 979 1151 861 q 1218 1388 1189 1168 q 1274 1454 1222 1415 q 1335 1467 1326 1494 q 1336 1456 1336 1463 q 1290 1068 1322 1279 q 1257 622 1268 846 q 1260 28 1233 325 q 1304 -175 1264 -78 q 1393 -263 1340 -244 q 1498 -261 1446 -282 q 1605 -194 1550 -240 q 1702 -96 1660 -147 q 1775 6 1744 -44 z "},"Ü":{"ha":1451,"x_min":65,"x_max":1885,"o":"m 1775 6 q 1844 57 1794 38 q 1882 50 1885 74 q 1869 19 1882 39 q 1826 -49 1847 -17 q 1772 -126 1804 -82 q 1708 -206 1740 -169 q 1636 -280 1675 -242 q 1557 -343 1597 -318 q 1474 -385 1517 -368 q 1385 -401 1431 -401 q 1296 -381 1340 -400 q 1244 -349 1268 -368 q 1205 -303 1221 -331 q 1176 -249 1189 -275 q 1156 -185 1164 -224 q 1142 -121 1147 -147 q 1135 -51 1138 -94 q 1132 14 1133 -7 q 1131 78 1131 35 q 1129 133 1131 122 q 1129 317 1128 214 q 1060 112 1096 206 q 973 -78 1024 18 q 855 -256 922 -175 q 707 -393 788 -336 q 538 -470 629 -447 q 363 -483 447 -493 q 208 -418 278 -474 q 106 -267 138 -362 q 76 -128 85 -201 q 70 35 67 -56 q 78 176 74 126 q 96 329 83 226 q 144 672 113 485 q 200 979 176 858 q 268 1318 224 1100 q 281 1375 276 1356 q 340 1442 286 1404 q 397 1454 393 1476 q 397 1443 399 1450 q 353 1239 381 1363 q 305 1022 325 1115 q 260 810 285 929 q 221 587 236 690 q 195 372 206 483 q 186 152 185 261 q 200 -58 188 43 q 247 -208 210 -140 q 342 -318 285 -276 q 465 -374 399 -360 q 606 -364 531 -389 q 747 -274 681 -339 q 840 -162 796 -226 q 915 -37 883 -99 q 976 109 946 24 q 1024 256 1006 194 q 1063 413 1042 317 q 1094 560 1085 508 q 1122 706 1104 611 q 1133 764 1129 744 q 1169 979 1151 861 q 1218 1388 1189 1168 q 1274 1454 1222 1415 q 1335 1467 1326 1494 q 1336 1456 1336 1463 q 1290 1068 1322 1279 q 1257 622 1268 846 q 1260 28 1233 325 q 1304 -175 1264 -78 q 1393 -263 1340 -244 q 1498 -261 1446 -282 q 1605 -194 1550 -240 q 1702 -96 1660 -147 q 1775 6 1744 -44 z "},"V":{"ha":2568,"x_min":67,"x_max":2843,"o":"m 2832 1928 q 2842 1874 2842 1906 q 2834 1806 2842 1842 q 2815 1731 2826 1769 q 2787 1653 2803 1693 q 2757 1581 2771 1614 q 2729 1515 2743 1549 q 2710 1465 2715 1482 q 2335 568 2550 1028 q 2302 493 2329 554 q 2248 370 2275 432 q 2178 223 2221 308 q 2096 65 2136 138 q 2006 -81 2056 -8 q 1912 -202 1957 -154 q 1819 -273 1867 -250 q 1729 -281 1771 -296 q 1694 -256 1708 -274 q 1676 -210 1681 -237 q 1671 -156 1672 -183 q 1674 -94 1669 -129 q 1681 -35 1678 -60 q 1690 18 1685 -11 q 1697 56 1696 47 q 1765 439 1715 182 q 1835 829 1815 696 q 1840 872 1836 843 q 1863 1021 1856 968 q 1876 1168 1869 1074 q 1880 1328 1883 1263 q 1861 1472 1876 1393 q 1817 1613 1846 1550 q 1733 1724 1785 1682 q 1618 1776 1681 1765 q 1489 1783 1556 1788 q 1351 1757 1422 1779 q 1219 1708 1279 1735 q 1101 1649 1160 1682 q 615 1262 828 1494 q 269 742 401 1029 q 192 436 206 596 q 215 121 178 276 q 217 117 217 119 q 226 80 222 94 q 241 38 231 65 q 262 -7 251 10 q 288 -36 272 -24 q 321 -46 304 -49 q 339 -58 342 -42 q 289 -135 336 -90 q 249 -161 265 -158 q 152 -122 192 -169 q 96 0 113 -74 q 73 162 79 74 q 69 315 67 250 q 78 419 72 381 q 585 1317 139 847 q 715 1442 639 1374 q 899 1592 792 1511 q 1116 1743 1006 1674 q 1347 1860 1226 1813 q 1571 1918 1467 1907 q 1768 1885 1675 1929 q 1919 1735 1861 1840 q 1968 1608 1950 1679 q 1992 1478 1986 1538 q 1994 1333 1997 1419 q 1988 1199 1992 1246 q 1974 1064 1983 1151 q 1937 800 1960 938 q 1880 485 1914 663 q 1831 224 1846 307 q 1819 164 1826 203 q 1806 99 1811 125 q 1795 33 1801 74 q 1790 -31 1789 -7 q 1796 -92 1792 -54 q 1799 -111 1797 -99 q 1813 -153 1806 -149 q 1853 -142 1819 -157 q 1907 -92 1878 -132 q 1956 -15 1936 -53 q 2000 75 1975 24 q 2033 140 2025 126 q 2225 525 2119 297 q 2575 1354 2419 940 q 2596 1406 2581 1372 q 2626 1474 2611 1440 q 2660 1552 2642 1508 q 2690 1633 2678 1596 q 2713 1711 2703 1669 q 2723 1781 2724 1753 q 2714 1838 2722 1810 q 2750 1907 2701 1864 q 2822 1938 2797 1950 q 2832 1928 2829 1935 z "},"W":{"ha":1513,"x_min":68,"x_max":1496,"o":"m 1424 1775 q 1484 1421 1472 1606 q 1472 1054 1496 1236 q 1402 699 1449 872 q 1286 354 1356 525 q 1218 197 1253 272 q 1115 3 1183 122 q 978 -193 1046 -115 q 821 -317 911 -271 q 644 -337 731 -364 q 566 -291 600 -324 q 512 -219 532 -258 q 479 -127 492 -181 q 462 -28 467 -74 q 458 77 457 18 q 460 172 458 136 q 465 254 463 208 q 510 576 479 406 q 415 452 461 506 q 317 363 368 399 q 224 324 267 326 q 146 363 182 321 q 90 494 110 404 q 73 615 78 551 q 69 737 68 679 q 80 867 71 794 q 98 994 89 940 q 124 1126 107 1049 q 153 1251 142 1204 q 185 1376 165 1297 q 214 1492 204 1454 q 250 1471 218 1508 q 288 1389 296 1418 q 161 661 194 1029 q 161 655 161 658 q 161 649 161 651 q 160 644 161 647 q 160 638 160 640 q 159 631 160 635 q 158 624 158 626 q 158 618 158 622 q 152 533 153 561 q 159 470 151 504 q 194 439 167 436 q 269 478 221 442 q 601 976 508 678 q 618 1038 615 1029 q 657 1015 624 1057 q 693 935 699 963 q 572 390 617 667 q 532 85 536 168 q 669 -222 513 -239 q 718 -210 692 -219 q 817 -158 769 -192 q 907 -81 865 -125 q 985 12 949 -36 q 1056 120 1022 60 q 1116 233 1089 181 q 1169 351 1143 286 q 1214 460 1196 415 q 1251 563 1232 506 q 1368 970 1326 771 q 1410 1393 1410 1169 q 1354 1813 1410 1617 q 1360 1846 1343 1850 q 1411 1800 1382 1843 q 1424 1775 1421 1786 z "},"X":{"ha":1449,"x_min":-792,"x_max":1842,"o":"m 1768 1706 q 1790 1701 1776 1710 q 1813 1678 1803 1693 q 1832 1644 1824 1663 q 1841 1612 1840 1626 q 1833 1592 1842 1597 q 1727 1521 1782 1561 q 1628 1442 1672 1481 q 1531 1352 1585 1404 q 1440 1263 1476 1300 q 1347 1167 1403 1225 q 1261 1078 1292 1110 q 939 746 1099 913 q 1015 425 975 567 q 1044 323 1033 361 q 1079 218 1056 285 q 1123 108 1103 151 q 1176 9 1143 65 q 1242 -84 1208 -47 q 1323 -153 1276 -121 q 1421 -203 1369 -186 q 1415 -260 1450 -211 q 1343 -317 1379 -310 q 1328 -317 1333 -319 q 1233 -274 1278 -301 q 1151 -209 1188 -247 q 1081 -130 1114 -171 q 1022 -34 1049 -89 q 973 69 994 21 q 931 181 951 117 q 897 294 911 246 q 869 411 883 343 q 846 522 854 479 q 826 626 838 564 q 433 207 629 417 q -332 -607 -156 -425 q -404 -691 -347 -624 q -508 -810 -461 -758 q -615 -906 -554 -861 q -715 -951 -675 -951 q -767 -897 -742 -951 q -772 -836 -792 -843 l -768 -835 q -740 -826 -756 -835 q -708 -803 -724 -818 q -678 -775 -692 -789 q -649 -746 -664 -761 q -629 -725 -635 -731 q -362 -457 -542 -643 q -129 -212 -246 -336 q 169 107 -12 -87 q 399 354 350 301 q 797 779 597 568 q 764 977 785 853 q 724 1207 743 1101 q 683 1404 704 1313 q 676 1437 682 1410 q 668 1474 671 1464 q 659 1509 665 1485 q 648 1547 653 1533 q 635 1579 643 1560 q 618 1613 628 1599 q 597 1642 608 1628 q 474 1721 543 1710 q 344 1701 406 1732 q 217 1611 282 1671 q 109 1494 153 1551 q 29 1381 65 1438 q -39 1331 11 1350 q -78 1338 -79 1314 q -64 1368 -76 1349 q -25 1428 -46 1399 q 23 1495 -4 1458 q 78 1566 50 1532 q 140 1635 107 1600 q 207 1701 172 1671 q 278 1757 242 1731 q 354 1802 315 1783 q 432 1832 393 1821 q 513 1842 471 1843 q 593 1831 554 1842 q 658 1797 628 1819 q 709 1747 688 1774 q 749 1682 731 1721 q 777 1610 767 1643 q 798 1531 788 1578 q 814 1454 808 1485 q 826 1378 819 1424 q 838 1311 833 1332 q 873 1110 849 1249 q 910 897 897 971 q 1224 1219 1065 1060 q 1322 1320 1253 1249 q 1431 1431 1390 1392 q 1532 1528 1471 1471 q 1651 1628 1593 1585 q 1768 1706 1710 1671 z "},"Y":{"ha":1860,"x_min":65,"x_max":1842,"o":"m 1763 367 q 1813 319 1786 371 q 1819 253 1840 265 q 1815 251 1818 251 q 1496 185 1653 222 q 1043 -514 1344 -212 q 944 -599 1003 -553 q 808 -693 885 -644 q 650 -781 731 -742 q 486 -843 569 -821 q 331 -863 403 -865 q 197 -822 258 -861 q 99 -706 135 -783 q 69 -594 74 -650 q 82 -486 65 -537 q 128 -384 99 -435 q 201 -288 157 -333 q 293 -201 244 -243 q 399 -119 342 -158 q 510 -49 456 -81 q 622 13 564 -17 q 725 63 679 42 q 814 101 771 83 q 1439 299 1118 224 q 1668 1232 1618 750 q 1411 847 1558 1026 q 1337 765 1378 807 q 1239 670 1296 722 q 1122 580 1182 618 q 999 515 1061 542 q 875 490 938 488 q 763 525 813 492 q 703 597 724 551 q 677 686 682 642 q 681 793 672 731 q 699 897 689 856 q 725 1001 708 939 q 746 1083 742 1063 q 758 1126 749 1097 q 774 1180 767 1156 q 789 1236 782 1204 q 795 1289 796 1268 q 789 1331 794 1310 q 775 1348 783 1342 q 757 1356 767 1354 q 734 1358 747 1358 q 710 1354 721 1357 q 683 1346 699 1351 q 658 1336 668 1340 q 632 1326 647 1332 q 610 1318 617 1319 q 321 1154 456 1253 q 271 1190 301 1142 q 251 1265 235 1244 l 254 1268 q 279 1286 263 1274 q 343 1328 319 1313 q 414 1374 367 1344 q 494 1419 461 1403 q 574 1452 528 1435 q 656 1473 621 1469 q 728 1469 692 1476 q 794 1439 765 1461 q 851 1363 832 1410 q 872 1270 869 1317 q 865 1163 874 1224 q 844 1056 856 1101 q 816 953 832 1011 q 794 869 800 894 q 786 837 794 868 q 771 774 778 806 q 758 705 764 742 q 751 641 751 668 q 760 607 751 614 q 792 609 764 604 q 853 622 819 614 q 917 638 888 629 q 958 650 947 646 q 1365 986 1158 725 q 1693 1539 1565 1242 q 1743 1504 1704 1567 q 1769 1444 1769 1463 q 1643 633 1749 1032 q 1550 325 1600 469 q 1763 367 1661 349 m 889 -479 q 1374 154 1201 -217 q 689 -97 1018 64 q 562 -166 622 -131 q 430 -253 501 -201 q 305 -358 358 -306 q 211 -478 251 -411 q 160 -614 171 -546 q 283 -740 140 -747 q 725 -581 443 -733 q 889 -479 839 -519 z "},"Ý":{"ha":1860,"x_min":65,"x_max":1842,"o":"m 1763 367 q 1813 319 1786 371 q 1819 253 1840 265 q 1815 251 1818 251 q 1496 185 1653 222 q 1043 -514 1344 -212 q 944 -599 1003 -553 q 808 -693 885 -644 q 650 -781 731 -742 q 486 -843 569 -821 q 331 -863 403 -865 q 197 -822 258 -861 q 99 -706 135 -783 q 69 -594 74 -650 q 82 -486 65 -537 q 128 -384 99 -435 q 201 -288 157 -333 q 293 -201 244 -243 q 399 -119 342 -158 q 510 -49 456 -81 q 622 13 564 -17 q 725 63 679 42 q 814 101 771 83 q 1439 299 1118 224 q 1668 1232 1618 750 q 1411 847 1558 1026 q 1337 765 1378 807 q 1239 670 1296 722 q 1122 580 1182 618 q 999 515 1061 542 q 875 490 938 488 q 763 525 813 492 q 703 597 724 551 q 677 686 682 642 q 681 793 672 731 q 699 897 689 856 q 725 1001 708 939 q 746 1083 742 1063 q 758 1126 749 1097 q 774 1180 767 1156 q 789 1236 782 1204 q 795 1289 796 1268 q 789 1331 794 1310 q 775 1348 783 1342 q 757 1356 767 1354 q 734 1358 747 1358 q 710 1354 721 1357 q 683 1346 699 1351 q 658 1336 668 1340 q 632 1326 647 1332 q 610 1318 617 1319 q 321 1154 456 1253 q 271 1190 301 1142 q 251 1265 235 1244 l 254 1268 q 279 1286 263 1274 q 343 1328 319 1313 q 414 1374 367 1344 q 494 1419 461 1403 q 574 1452 528 1435 q 656 1473 621 1469 q 728 1469 692 1476 q 794 1439 765 1461 q 851 1363 832 1410 q 872 1270 869 1317 q 865 1163 874 1224 q 844 1056 856 1101 q 816 953 832 1011 q 794 869 800 894 q 786 837 794 868 q 771 774 778 806 q 758 705 764 742 q 751 641 751 668 q 760 607 751 614 q 792 609 764 604 q 853 622 819 614 q 917 638 888 629 q 958 650 947 646 q 1365 986 1158 725 q 1693 1539 1565 1242 q 1743 1504 1704 1567 q 1769 1444 1769 1463 q 1643 633 1749 1032 q 1550 325 1600 469 q 1763 367 1661 349 m 889 -479 q 1374 154 1201 -217 q 689 -97 1018 64 q 562 -166 622 -131 q 430 -253 501 -201 q 305 -358 358 -306 q 211 -478 251 -411 q 160 -614 171 -546 q 283 -740 140 -747 q 725 -581 443 -733 q 889 -479 839 -519 z "},"Z":{"ha":1675,"x_min":67,"x_max":1778,"o":"m 1247 67 q 1335 83 1301 78 q 1422 91 1368 89 q 1511 85 1475 93 q 1588 56 1547 78 q 1654 -4 1628 33 q 1675 -74 1681 -39 q 1643 -74 1671 -103 l 1632 -58 q 1549 -13 1607 -24 q 1430 -10 1492 -3 q 1281 -39 1368 -17 q 1139 -79 1194 -61 q 1008 -124 1083 -97 q 922 -154 932 -151 q 603 -277 851 -178 q 218 -407 356 -376 q 164 -414 189 -414 q 115 -406 139 -414 q 79 -374 92 -397 q 69 -314 67 -351 q 106 -237 72 -281 q 194 -141 139 -194 q 254 -81 249 -87 q 720 439 378 60 q 1244 1029 1063 818 q 1647 1531 1463 1267 q 1653 1542 1649 1535 q 1662 1560 1657 1550 q 1669 1576 1667 1571 q 1574 1585 1640 1578 q 1493 1590 1508 1592 q 1070 1547 1301 1579 q 683 1485 839 1514 q 265 1403 526 1456 q 226 1428 247 1399 q 198 1483 204 1457 q 200 1517 192 1510 q 349 1548 263 1529 q 501 1581 435 1567 q 657 1614 568 1596 q 814 1645 746 1632 q 972 1673 882 1658 q 1129 1694 1061 1688 q 1285 1709 1197 1701 q 1440 1715 1374 1717 q 1593 1710 1507 1713 q 1697 1688 1656 1704 q 1753 1642 1739 1671 q 1772 1585 1768 1614 q 1758 1513 1776 1556 q 1724 1439 1739 1471 q 1674 1360 1708 1407 q 1620 1289 1639 1313 q 1568 1224 1601 1265 q 1549 1200 1556 1207 q 1285 883 1432 1054 q 1042 606 1138 713 q 756 290 947 500 q 500 7 565 79 q 275 -247 339 -172 q 267 -256 272 -249 q 395 -208 313 -240 q 501 -168 478 -176 q 544 -151 515 -162 q 783 -64 697 -94 q 1001 6 868 -33 q 1247 67 1135 46 z "},"a":{"ha":726,"x_min":-7,"x_max":804,"o":"m 790 392 q 789 354 803 378 q 758 315 775 331 q 753 310 757 314 q 432 233 479 63 q 417 321 419 276 q 376 263 397 290 q 274 160 331 206 q 164 115 217 114 q 88 158 125 117 q 29 246 51 199 q 6 397 -6 317 q 55 544 18 476 q 149 671 92 613 q 308 754 240 764 q 440 638 371 744 q 458 710 451 675 q 494 689 461 726 q 533 607 539 638 q 532 604 532 606 q 532 603 532 603 l 532 601 q 540 386 533 471 q 542 369 540 383 q 544 349 543 356 q 547 331 544 343 q 552 310 549 318 q 561 295 556 303 q 574 283 567 288 q 594 278 585 279 q 616 283 603 276 q 638 296 629 290 q 660 313 647 301 q 681 331 674 324 q 699 347 689 338 q 714 361 710 357 q 790 392 769 413 m 172 257 q 421 579 335 342 q 411 593 415 586 q 361 633 390 626 q 304 626 332 639 q 247 588 276 614 q 196 538 217 563 q 158 488 175 513 q 92 338 115 425 q 122 240 64 235 q 172 257 143 242 z "},"à":{"ha":726,"x_min":-7,"x_max":804,"o":"m 790 392 q 789 354 803 378 q 758 315 775 331 q 753 310 757 314 q 432 233 479 63 q 417 321 419 276 q 376 263 397 290 q 274 160 331 206 q 164 115 217 114 q 88 158 125 117 q 29 246 51 199 q 6 397 -6 317 q 55 544 18 476 q 149 671 92 613 q 308 754 240 764 q 440 638 371 744 q 458 710 451 675 q 494 689 461 726 q 533 607 539 638 q 532 604 532 606 q 532 603 532 603 l 532 601 q 540 386 533 471 q 542 369 540 383 q 544 349 543 356 q 547 331 544 343 q 552 310 549 318 q 561 295 556 303 q 574 283 567 288 q 594 278 585 279 q 616 283 603 276 q 638 296 629 290 q 660 313 647 301 q 681 331 674 324 q 699 347 689 338 q 714 361 710 357 q 790 392 769 413 m 172 257 q 421 579 335 342 q 411 593 415 586 q 361 633 390 626 q 304 626 332 639 q 247 588 276 614 q 196 538 217 563 q 158 488 175 513 q 92 338 115 425 q 122 240 64 235 q 172 257 143 242 z "},"á":{"ha":726,"x_min":-7,"x_max":804,"o":"m 790 392 q 789 354 803 378 q 758 315 775 331 q 753 310 757 314 q 432 233 479 63 q 417 321 419 276 q 376 263 397 290 q 274 160 331 206 q 164 115 217 114 q 88 158 125 117 q 29 246 51 199 q 6 397 -6 317 q 55 544 18 476 q 149 671 92 613 q 308 754 240 764 q 440 638 371 744 q 458 710 451 675 q 494 689 461 726 q 533 607 539 638 q 532 604 532 606 q 532 603 532 603 l 532 601 q 540 386 533 471 q 542 369 540 383 q 544 349 543 356 q 547 331 544 343 q 552 310 549 318 q 561 295 556 303 q 574 283 567 288 q 594 278 585 279 q 616 283 603 276 q 638 296 629 290 q 660 313 647 301 q 681 331 674 324 q 699 347 689 338 q 714 361 710 357 q 790 392 769 413 m 172 257 q 421 579 335 342 q 411 593 415 586 q 361 633 390 626 q 304 626 332 639 q 247 588 276 614 q 196 538 217 563 q 158 488 175 513 q 92 338 115 425 q 122 240 64 235 q 172 257 143 242 z "},"â":{"ha":726,"x_min":-7,"x_max":804,"o":"m 790 392 q 789 354 803 378 q 758 315 775 331 q 753 310 757 314 q 432 233 479 63 q 417 321 419 276 q 376 263 397 290 q 274 160 331 206 q 164 115 217 114 q 88 158 125 117 q 29 246 51 199 q 6 397 -6 317 q 55 544 18 476 q 149 671 92 613 q 308 754 240 764 q 440 638 371 744 q 458 710 451 675 q 494 689 461 726 q 533 607 539 638 q 532 604 532 606 q 532 603 532 603 l 532 601 q 540 386 533 471 q 542 369 540 383 q 544 349 543 356 q 547 331 544 343 q 552 310 549 318 q 561 295 556 303 q 574 283 567 288 q 594 278 585 279 q 616 283 603 276 q 638 296 629 290 q 660 313 647 301 q 681 331 674 324 q 699 347 689 338 q 714 361 710 357 q 790 392 769 413 m 172 257 q 421 579 335 342 q 411 593 415 586 q 361 633 390 626 q 304 626 332 639 q 247 588 276 614 q 196 538 217 563 q 158 488 175 513 q 92 338 115 425 q 122 240 64 235 q 172 257 143 242 z "},"ã":{"ha":726,"x_min":-7,"x_max":804,"o":"m 790 392 q 789 354 803 378 q 758 315 775 331 q 753 310 757 314 q 432 233 479 63 q 417 321 419 276 q 376 263 397 290 q 274 160 331 206 q 164 115 217 114 q 88 158 125 117 q 29 246 51 199 q 6 397 -6 317 q 55 544 18 476 q 149 671 92 613 q 308 754 240 764 q 440 638 371 744 q 458 710 451 675 q 494 689 461 726 q 533 607 539 638 q 532 604 532 606 q 532 603 532 603 l 532 601 q 540 386 533 471 q 542 369 540 383 q 544 349 543 356 q 547 331 544 343 q 552 310 549 318 q 561 295 556 303 q 574 283 567 288 q 594 278 585 279 q 616 283 603 276 q 638 296 629 290 q 660 313 647 301 q 681 331 674 324 q 699 347 689 338 q 714 361 710 357 q 790 392 769 413 m 172 257 q 421 579 335 342 q 411 593 415 586 q 361 633 390 626 q 304 626 332 639 q 247 588 276 614 q 196 538 217 563 q 158 488 175 513 q 92 338 115 425 q 122 240 64 235 q 172 257 143 242 z "},"ä":{"ha":726,"x_min":-7,"x_max":804,"o":"m 790 392 q 789 354 803 378 q 758 315 775 331 q 753 310 757 314 q 432 233 479 63 q 417 321 419 276 q 376 263 397 290 q 274 160 331 206 q 164 115 217 114 q 88 158 125 117 q 29 246 51 199 q 6 397 -6 317 q 55 544 18 476 q 149 671 92 613 q 308 754 240 764 q 440 638 371 744 q 458 710 451 675 q 494 689 461 726 q 533 607 539 638 q 532 604 532 606 q 532 603 532 603 l 532 601 q 540 386 533 471 q 542 369 540 383 q 544 349 543 356 q 547 331 544 343 q 552 310 549 318 q 561 295 556 303 q 574 283 567 288 q 594 278 585 279 q 616 283 603 276 q 638 296 629 290 q 660 313 647 301 q 681 331 674 324 q 699 347 689 338 q 714 361 710 357 q 790 392 769 413 m 172 257 q 421 579 335 342 q 411 593 415 586 q 361 633 390 626 q 304 626 332 639 q 247 588 276 614 q 196 538 217 563 q 158 488 175 513 q 92 338 115 425 q 122 240 64 235 q 172 257 143 242 z "},"å":{"ha":726,"x_min":-7,"x_max":804,"o":"m 790 392 q 789 354 803 378 q 758 315 775 331 q 753 310 757 314 q 432 233 479 63 q 417 321 419 276 q 376 263 397 290 q 274 160 331 206 q 164 115 217 114 q 88 158 125 117 q 29 246 51 199 q 6 397 -6 317 q 55 544 18 476 q 149 671 92 613 q 308 754 240 764 q 440 638 371 744 q 458 710 451 675 q 494 689 461 726 q 533 607 539 638 q 532 604 532 606 q 532 603 532 603 l 532 601 q 540 386 533 471 q 542 369 540 383 q 544 349 543 356 q 547 331 544 343 q 552 310 549 318 q 561 295 556 303 q 574 283 567 288 q 594 278 585 279 q 616 283 603 276 q 638 296 629 290 q 660 313 647 301 q 681 331 674 324 q 699 347 689 338 q 714 361 710 357 q 790 392 769 413 m 172 257 q 421 579 335 342 q 411 593 415 586 q 361 633 390 626 q 304 626 332 639 q 247 588 276 614 q 196 538 217 563 q 158 488 175 513 q 92 338 115 425 q 122 240 64 235 q 172 257 143 242 z "},"b":{"ha":522,"x_min":-39,"x_max":578,"o":"m 544 375 q 575 363 578 386 q 528 289 572 331 q 497 268 510 271 q 490 265 496 267 q 486 264 488 264 q 474 224 481 243 q 400 103 449 156 q 288 19 351 50 q 226 3 261 8 q 154 -1 190 -3 q 91 19 118 1 q 61 69 64 38 q 390 325 46 201 q 385 383 389 354 q 324 532 365 506 q 297 545 310 542 q 272 545 283 549 q 250 537 260 542 q 231 519 240 532 q 214 498 221 507 q 199 472 207 489 q 186 446 190 456 q 174 418 182 436 q 164 394 167 400 q 76 160 114 279 q 21 104 69 138 q -37 97 -37 63 q -37 104 -37 100 l 185 1433 q 244 1500 190 1463 q 303 1511 297 1536 q 303 1501 304 1507 l 143 546 q 292 672 196 633 q 381 677 343 690 q 443 634 418 664 q 481 558 468 604 q 499 462 494 511 q 500 361 503 413 q 544 375 536 372 m 364 181 q 382 236 378 207 q 233 163 299 219 q 240 118 200 124 q 333 147 285 114 q 364 181 354 163 z "},"c":{"ha":490,"x_min":-17,"x_max":542,"o":"m 517 404 q 540 386 538 401 q 528 354 542 371 q 369 191 463 258 q 165 92 276 124 q 74 88 110 78 q 17 119 38 97 q -9 180 -3 142 q -12 258 -15 218 q 1 343 -10 297 q 225 744 79 658 q 433 568 357 824 q 392 496 443 539 q 322 469 343 454 q 315 478 318 472 q 215 646 293 578 q 204 628 207 633 q 175 569 192 606 q 119 411 140 493 q 108 362 113 383 q 102 308 104 340 q 106 256 100 276 q 130 217 113 235 q 178 197 147 200 q 282 221 225 193 q 383 288 339 249 q 421 325 394 297 q 440 349 432 338 q 435 340 439 347 q 517 404 483 411 z "},"ç":{"ha":490,"x_min":-17,"x_max":542,"o":"m 517 404 q 540 386 538 401 q 528 354 542 371 q 369 191 463 258 q 165 92 276 124 q 74 88 110 78 q 17 119 38 97 q -9 180 -3 142 q -12 258 -15 218 q 1 343 -10 297 q 225 744 79 658 q 433 568 357 824 q 392 496 443 539 q 322 469 343 454 q 315 478 318 472 q 215 646 293 578 q 204 628 207 633 q 175 569 192 606 q 119 411 140 493 q 108 362 113 383 q 102 308 104 340 q 106 256 100 276 q 130 217 113 235 q 178 197 147 200 q 282 221 225 193 q 383 288 339 249 q 421 325 394 297 q 440 349 432 338 q 435 340 439 347 q 517 404 483 411 z "},"d":{"ha":608,"x_min":-31,"x_max":703,"o":"m 618 375 q 660 353 625 394 q 693 272 701 300 q 685 253 690 267 q 673 222 678 233 q 658 186 668 210 q 641 147 649 163 q 622 109 633 132 q 599 72 610 86 q 576 40 589 57 q 550 13 563 22 q 523 -3 538 4 q 494 -8 508 -10 q 464 0 479 -7 q 346 218 383 43 q 338 267 340 242 q 94 24 217 -31 q 1 110 32 51 q -31 238 -31 168 q -18 371 -31 307 q 17 490 -6 435 q 44 553 32 526 q 73 611 56 579 q 106 663 90 643 q 144 698 122 682 q 187 715 165 714 q 235 703 208 715 q 289 660 261 690 q 318 589 311 636 q 310 564 322 563 q 285 582 301 565 q 215 589 249 610 q 147 505 181 568 q 92 390 113 442 q 63 304 72 338 q 54 254 57 281 q 54 197 51 228 q 78 150 57 167 q 135 138 99 133 q 258 328 197 146 q 280 404 269 364 q 303 499 290 444 q 322 576 317 554 q 532 1465 418 965 q 568 1444 535 1482 q 606 1363 613 1393 q 570 1174 601 1342 q 497 817 539 1007 q 408 475 454 628 q 410 235 397 354 q 436 122 419 139 q 489 136 454 100 q 618 375 575 243 z "},"e":{"ha":503,"x_min":-25,"x_max":611,"o":"m 519 413 q 589 439 565 454 q 583 388 611 425 l 565 367 q 494 304 529 333 q 406 237 458 275 q 303 176 353 199 q 200 142 253 154 q 100 148 147 131 q 17 211 53 165 q -21 313 -18 257 q 0 422 -24 368 q 55 522 24 476 q 126 607 86 567 q 254 701 182 663 q 361 661 367 761 q 283 483 356 579 q 121 326 211 386 q 157 286 136 303 q 519 413 285 192 m 139 521 q 100 399 100 467 q 163 453 121 411 q 233 541 204 494 q 243 603 261 588 q 207 594 231 613 q 167 556 183 576 q 139 521 150 536 z "},"è":{"ha":503,"x_min":-25,"x_max":611,"o":"m 519 413 q 589 439 565 454 q 583 388 611 425 l 565 367 q 494 304 529 333 q 406 237 458 275 q 303 176 353 199 q 200 142 253 154 q 100 148 147 131 q 17 211 53 165 q -21 313 -18 257 q 0 422 -24 368 q 55 522 24 476 q 126 607 86 567 q 254 701 182 663 q 361 661 367 761 q 283 483 356 579 q 121 326 211 386 q 157 286 136 303 q 519 413 285 192 m 139 521 q 100 399 100 467 q 163 453 121 411 q 233 541 204 494 q 243 603 261 588 q 207 594 231 613 q 167 556 183 576 q 139 521 150 536 z "},"é":{"ha":503,"x_min":-25,"x_max":611,"o":"m 519 413 q 589 439 565 454 q 583 388 611 425 l 565 367 q 494 304 529 333 q 406 237 458 275 q 303 176 353 199 q 200 142 253 154 q 100 148 147 131 q 17 211 53 165 q -21 313 -18 257 q 0 422 -24 368 q 55 522 24 476 q 126 607 86 567 q 254 701 182 663 q 361 661 367 761 q 283 483 356 579 q 121 326 211 386 q 157 286 136 303 q 519 413 285 192 m 139 521 q 100 399 100 467 q 163 453 121 411 q 233 541 204 494 q 243 603 261 588 q 207 594 231 613 q 167 556 183 576 q 139 521 150 536 z "},"ê":{"ha":503,"x_min":-25,"x_max":611,"o":"m 519 413 q 589 439 565 454 q 583 388 611 425 l 565 367 q 494 304 529 333 q 406 237 458 275 q 303 176 353 199 q 200 142 253 154 q 100 148 147 131 q 17 211 53 165 q -21 313 -18 257 q 0 422 -24 368 q 55 522 24 476 q 126 607 86 567 q 254 701 182 663 q 361 661 367 761 q 283 483 356 579 q 121 326 211 386 q 157 286 136 303 q 519 413 285 192 m 139 521 q 100 399 100 467 q 163 453 121 411 q 233 541 204 494 q 243 603 261 588 q 207 594 231 613 q 167 556 183 576 q 139 521 150 536 z "},"ë":{"ha":503,"x_min":-25,"x_max":611,"o":"m 519 413 q 589 439 565 454 q 583 388 611 425 l 565 367 q 494 304 529 333 q 406 237 458 275 q 303 176 353 199 q 200 142 253 154 q 100 148 147 131 q 17 211 53 165 q -21 313 -18 257 q 0 422 -24 368 q 55 522 24 476 q 126 607 86 567 q 254 701 182 663 q 361 661 367 761 q 283 483 356 579 q 121 326 211 386 q 157 286 136 303 q 519 413 285 192 m 139 521 q 100 399 100 467 q 163 453 121 411 q 233 541 204 494 q 243 603 261 588 q 207 594 231 613 q 167 556 183 576 q 139 521 150 536 z "},"f":{"ha":504,"x_min":-54,"x_max":583,"o":"m 508 475 q 522 476 514 479 q 539 464 531 472 q 556 444 547 456 q 569 420 564 433 q 578 396 575 407 q 581 375 582 385 q 574 363 579 365 q 440 313 518 329 q 302 294 361 296 q 157 293 243 292 q 246 -414 321 -147 q 132 -592 213 -533 q 3 -593 56 -647 q -44 -465 -35 -554 q -54 -312 -54 -394 q -48 -158 -54 -231 q -30 2 -42 -86 q -7 158 -18 90 q 19 315 4 225 q 44 465 35 406 q 157 1169 96 818 q 197 1161 163 1200 q 235 1088 235 1118 q 235 1083 235 1086 q 125 408 169 708 q 341 419 247 407 q 508 475 435 432 m 161 -347 q 106 278 244 -121 q 51 -171 71 18 q 44 -275 46 -215 q 39 -393 42 -335 q 31 -497 36 -451 q 31 -506 31 -501 l 32 -504 q 95 -433 43 -482 q 161 -347 147 -385 z "},"g":{"ha":642,"x_min":-54,"x_max":746,"o":"m 668 474 q 702 458 679 483 q 735 404 725 433 q 733 360 744 375 q 658 300 713 343 q 558 220 604 257 q 471 147 513 183 q 428 -142 450 -17 q 417 -216 425 -158 q 401 -319 408 -274 q 379 -429 393 -364 q 347 -544 365 -494 q 303 -639 328 -593 q 244 -709 279 -685 q 169 -733 210 -733 q 61 -686 111 -733 q -15 -578 11 -639 q -46 -461 -42 -517 q -19 -270 -53 -368 q 84 -79 15 -172 q 226 91 153 14 q 396 251 300 168 q 397 260 396 254 q 397 269 397 267 q 406 346 401 296 q 413 401 411 396 q 325 278 376 335 q 219 206 276 226 q 105 205 161 185 q 18 292 49 225 q -3 389 -1 331 q 9 509 -6 447 q 48 628 24 571 q 110 728 72 685 q 190 788 149 771 q 247 791 219 800 q 294 767 274 782 q 334 722 315 751 q 365 667 353 693 q 388 610 376 640 q 451 818 426 713 q 494 790 457 840 q 528 724 529 744 q 493 333 515 529 q 553 383 521 357 q 617 433 586 408 q 668 474 649 458 m 254 388 q 364 554 322 463 q 331 606 342 576 q 199 615 296 735 q 104 456 138 542 q 103 451 104 453 q 91 330 72 360 q 157 317 110 300 q 254 388 204 335 m 217 -537 q 319 -281 285 -426 q 375 60 353 -135 q 33 -486 58 -236 q 58 -590 26 -556 q 136 -608 89 -624 q 217 -537 183 -593 z "},"h":{"ha":576,"x_min":-40,"x_max":668,"o":"m 582 290 q 631 257 599 304 q 650 181 667 203 q 647 178 649 179 q 496 94 564 110 q 385 127 428 79 q 342 288 342 175 q 347 333 342 294 q 356 397 353 371 q 354 439 358 424 q 349 454 350 446 q 326 443 339 446 q 287 414 308 438 q 251 369 265 390 q 217 313 238 347 q 193 271 197 278 q 50 33 113 157 l 39 -33 q -11 -11 32 -74 q -37 40 -36 25 q -39 51 -39 46 l -39 53 q -29 108 -37 81 l 190 1428 q 231 1419 196 1458 q 269 1346 268 1376 q 268 1343 269 1344 l 110 394 q 222 532 167 479 q 315 583 276 585 q 367 565 344 583 q 402 519 389 547 q 423 463 415 490 q 433 410 431 436 q 430 360 435 396 q 419 292 425 325 q 415 231 414 260 q 428 194 417 201 q 439 194 433 194 q 455 199 444 193 q 474 209 465 204 q 494 222 482 214 q 516 238 507 231 q 537 253 525 244 q 556 269 549 263 q 571 282 563 275 q 582 290 579 289 z "},"i":{"ha":357,"x_min":-6,"x_max":447,"o":"m 361 342 q 407 319 372 363 q 438 242 447 268 q 436 239 436 240 q 356 138 406 183 q 249 69 306 93 q 134 62 192 44 q 36 146 76 79 q 3 233 13 185 q -3 326 -6 282 q 13 424 0 371 q 40 517 26 476 q 75 604 54 557 q 117 581 83 624 q 149 500 158 529 q 78 182 79 349 q 78 181 78 182 q 78 179 78 179 l 86 175 q 115 173 94 176 q 146 169 136 169 q 265 226 214 181 q 361 342 324 275 m 97 683 q 75 688 88 679 q 51 712 63 696 q 32 746 40 728 q 24 778 24 764 q 31 797 24 792 q 133 847 94 831 q 186 851 171 863 q 231 798 214 833 q 228 735 247 763 q 210 738 222 729 q 206 735 208 736 q 201 733 203 735 q 157 714 185 726 q 97 683 126 699 z "},"ì":{"ha":357,"x_min":-6,"x_max":447,"o":"m 361 342 q 407 319 372 363 q 438 242 447 268 q 436 239 436 240 q 356 138 406 183 q 249 69 306 93 q 134 62 192 44 q 36 146 76 79 q 3 233 13 185 q -3 326 -6 282 q 13 424 0 371 q 40 517 26 476 q 75 604 54 557 q 117 581 83 624 q 149 500 158 529 q 78 182 79 349 q 78 181 78 182 q 78 179 78 179 l 86 175 q 115 173 94 176 q 146 169 136 169 q 265 226 214 181 q 361 342 324 275 m 97 683 q 75 688 88 679 q 51 712 63 696 q 32 746 40 728 q 24 778 24 764 q 31 797 24 792 q 133 847 94 831 q 186 851 171 863 q 231 798 214 833 q 228 735 247 763 q 210 738 222 729 q 206 735 208 736 q 201 733 203 735 q 157 714 185 726 q 97 683 126 699 z "},"í":{"ha":357,"x_min":-6,"x_max":447,"o":"m 361 342 q 407 319 372 363 q 438 242 447 268 q 436 239 436 240 q 356 138 406 183 q 249 69 306 93 q 134 62 192 44 q 36 146 76 79 q 3 233 13 185 q -3 326 -6 282 q 13 424 0 371 q 40 517 26 476 q 75 604 54 557 q 117 581 83 624 q 149 500 158 529 q 78 182 79 349 q 78 181 78 182 q 78 179 78 179 l 86 175 q 115 173 94 176 q 146 169 136 169 q 265 226 214 181 q 361 342 324 275 m 97 683 q 75 688 88 679 q 51 712 63 696 q 32 746 40 728 q 24 778 24 764 q 31 797 24 792 q 133 847 94 831 q 186 851 171 863 q 231 798 214 833 q 228 735 247 763 q 210 738 222 729 q 206 735 208 736 q 201 733 203 735 q 157 714 185 726 q 97 683 126 699 z "},"î":{"ha":357,"x_min":-6,"x_max":447,"o":"m 361 342 q 407 319 372 363 q 438 242 447 268 q 436 239 436 240 q 356 138 406 183 q 249 69 306 93 q 134 62 192 44 q 36 146 76 79 q 3 233 13 185 q -3 326 -6 282 q 13 424 0 371 q 40 517 26 476 q 75 604 54 557 q 117 581 83 624 q 149 500 158 529 q 78 182 79 349 q 78 181 78 182 q 78 179 78 179 l 86 175 q 115 173 94 176 q 146 169 136 169 q 265 226 214 181 q 361 342 324 275 m 97 683 q 75 688 88 679 q 51 712 63 696 q 32 746 40 728 q 24 778 24 764 q 31 797 24 792 q 133 847 94 831 q 186 851 171 863 q 231 798 214 833 q 228 735 247 763 q 210 738 222 729 q 206 735 208 736 q 201 733 203 735 q 157 714 185 726 q 97 683 126 699 z "},"ï":{"ha":357,"x_min":-6,"x_max":447,"o":"m 361 342 q 407 319 372 363 q 438 242 447 268 q 436 239 436 240 q 356 138 406 183 q 249 69 306 93 q 134 62 192 44 q 36 146 76 79 q 3 233 13 185 q -3 326 -6 282 q 13 424 0 371 q 40 517 26 476 q 75 604 54 557 q 117 581 83 624 q 149 500 158 529 q 78 182 79 349 q 78 181 78 182 q 78 179 78 179 l 86 175 q 115 173 94 176 q 146 169 136 169 q 265 226 214 181 q 361 342 324 275 m 97 683 q 75 688 88 679 q 51 712 63 696 q 32 746 40 728 q 24 778 24 764 q 31 797 24 792 q 133 847 94 831 q 186 851 171 863 q 231 798 214 833 q 228 735 247 763 q 210 738 222 729 q 206 735 208 736 q 201 733 203 735 q 157 714 185 726 q 97 683 126 699 z "},"j":{"ha":303,"x_min":-415,"x_max":299,"o":"m 221 231 q 255 215 232 239 q 288 162 278 190 q 286 117 299 133 q 190 33 242 79 q 188 6 190 25 q 176 -90 181 -56 q 160 -190 171 -125 q 140 -299 150 -256 q 115 -401 131 -342 q 79 -503 99 -461 q 35 -592 60 -546 q -21 -673 11 -637 q -90 -735 -53 -708 q -187 -775 -137 -767 q -277 -770 -237 -783 q -349 -726 -317 -757 q -398 -656 -381 -696 q -415 -565 -415 -615 q -394 -465 -415 -514 q -303 -296 -360 -381 q -169 -130 -246 -211 q -26 13 -92 -49 q 131 153 40 75 q 161 849 168 500 q 197 838 161 876 q 240 763 239 792 q 213 224 240 497 l 221 231 m -29 -450 q 99 -50 58 -258 q -267 -472 -111 -237 q -357 -639 -318 -551 q -222 -654 -292 -662 q -113 -584 -158 -639 q -29 -450 -68 -529 m 121 915 q 99 919 113 911 q 76 944 86 928 q 57 978 65 960 q 48 1010 49 996 q 56 1029 47 1024 q 158 1079 119 1063 q 211 1083 194 1094 q 255 1030 239 1065 q 251 967 271 994 q 235 969 247 961 q 231 968 233 969 q 226 967 228 967 q 182 946 208 960 q 121 915 151 932 z "},"k":{"ha":582,"x_min":-72,"x_max":671,"o":"m 550 242 q 613 307 558 271 q 669 318 667 343 q 668 310 669 315 q 634 206 656 257 q 582 105 613 156 q 508 16 551 54 q 415 -37 465 -22 q 357 -46 383 -44 q 305 -35 331 -47 q 258 -8 279 -24 q 218 31 238 7 q 183 79 199 56 q 152 133 167 103 q 126 188 138 163 q 106 243 115 214 q 71 167 86 206 l 54 67 q 3 1 50 44 q -64 -12 -56 -50 q -46 107 -71 50 l 165 1371 q 225 1439 171 1401 q 283 1450 278 1475 q 283 1440 285 1446 l 108 394 q 164 486 139 447 q 225 573 189 525 q 303 654 261 621 q 389 704 346 688 q 488 706 458 726 q 515 640 518 686 q 478 546 511 594 q 224 338 375 411 q 363 124 282 193 q 533 183 472 29 q 550 242 543 210 m 217 432 q 203 410 214 426 q 338 494 278 440 q 390 597 433 603 q 299 547 356 593 q 285 535 290 540 q 217 432 246 488 z "},"l":{"ha":381,"x_min":-7,"x_max":490,"o":"m 372 303 q 440 360 386 331 q 488 363 489 388 q 482 344 488 356 q 444 271 461 303 q 394 192 426 239 q 331 117 361 146 q 258 70 300 89 q 174 57 215 51 q 115 81 140 63 q 72 128 89 99 q 44 187 56 158 q 26 256 33 215 q 17 322 19 297 q 11 383 14 347 q 24 864 -6 615 q 117 1411 54 1113 q 176 1478 122 1440 q 235 1489 229 1513 q 233 1479 235 1485 q 136 818 165 1151 q 124 654 128 713 q 125 504 121 596 q 146 342 129 413 q 186 242 161 281 q 241 193 211 203 q 306 210 271 183 q 372 303 340 238 z "},"m":{"ha":1040,"x_min":-32,"x_max":1129,"o":"m 1124 515 q 1124 503 1129 519 q 1028 319 1101 429 q 807 165 900 129 q 769 193 786 175 q 704 453 706 261 q 397 133 567 278 q 365 145 383 122 q 336 199 347 168 q 328 242 325 231 q 351 556 365 396 q 254 425 317 511 q 161 300 192 339 q 140 269 157 294 q 110 228 122 244 q 78 195 97 211 q 43 178 60 179 q 8 203 26 175 q -18 254 -10 232 q -31 335 -29 290 q -24 430 -32 381 q -5 522 -15 479 q 19 616 6 564 q 39 697 32 668 q 74 676 42 714 q 113 594 118 624 q 84 483 108 575 q 51 339 60 390 q 124 443 79 372 q 174 521 169 514 q 331 724 286 672 q 367 702 342 739 q 397 650 393 665 q 431 336 439 494 q 706 649 576 485 q 764 604 728 676 q 781 554 781 569 q 782 535 782 549 q 788 457 785 489 q 799 374 792 425 q 819 292 806 322 q 851 258 833 261 q 893 275 868 256 q 947 328 918 294 q 1006 397 976 361 q 1068 466 1036 432 q 1124 515 1100 500 z "},"n":{"ha":582,"x_min":-31,"x_max":650,"o":"m 613 421 q 632 447 619 446 q 633 389 650 449 q 554 252 610 299 q 428 243 499 206 q 388 275 404 256 q 361 313 371 294 q 344 360 351 331 q 333 408 336 389 q 326 462 331 426 q 319 514 321 497 q 304 499 307 503 q 199 344 269 456 q 50 101 122 224 q 1 132 35 75 q -25 204 -29 182 l 129 831 q 165 810 132 847 q 203 728 210 758 l 142 481 q 187 558 169 529 q 234 622 204 586 q 286 664 264 657 q 324 658 307 669 q 353 624 342 647 q 372 581 365 600 q 382 540 378 561 q 392 483 385 525 q 403 417 399 442 q 422 361 408 392 q 454 317 436 331 q 551 322 503 282 q 613 421 599 363 z "},"ñ":{"ha":582,"x_min":-31,"x_max":650,"o":"m 613 421 q 632 447 619 446 q 633 389 650 449 q 554 252 610 299 q 428 243 499 206 q 388 275 404 256 q 361 313 371 294 q 344 360 351 331 q 333 408 336 389 q 326 462 331 426 q 319 514 321 497 q 304 499 307 503 q 199 344 269 456 q 50 101 122 224 q 1 132 35 75 q -25 204 -29 182 l 129 831 q 165 810 132 847 q 203 728 210 758 l 142 481 q 187 558 169 529 q 234 622 204 586 q 286 664 264 657 q 324 658 307 669 q 353 624 342 647 q 372 581 365 600 q 382 540 378 561 q 392 483 385 525 q 403 417 399 442 q 422 361 408 392 q 454 317 436 331 q 551 322 503 282 q 613 421 599 363 z "},"o":{"ha":744,"x_min":-49,"x_max":836,"o":"m 803 665 q 832 657 835 679 q 785 579 828 625 q 757 558 768 563 q 497 464 631 503 q 488 247 540 350 q 321 90 436 144 q 201 69 261 63 q 93 104 142 75 q 10 185 44 133 q -35 300 -25 238 q 0 475 -49 388 q 126 636 49 563 q 142 636 132 640 q 239 708 178 690 q 299 703 268 714 q 357 667 329 692 q 408 614 385 643 q 453 551 432 585 q 803 665 635 588 m 396 549 q 346 585 376 575 q 285 589 315 596 q 396 549 332 546 m 238 196 q 374 289 311 225 q 444 425 438 353 q 443 450 444 438 q 163 492 231 401 q 74 367 110 436 q 48 310 57 335 q 42 254 39 286 q 69 204 44 222 q 238 196 151 157 z "},"ò":{"ha":744,"x_min":-49,"x_max":836,"o":"m 803 665 q 832 657 835 679 q 785 579 828 625 q 757 558 768 563 q 497 464 631 503 q 488 247 540 350 q 321 90 436 144 q 201 69 261 63 q 93 104 142 75 q 10 185 44 133 q -35 300 -25 238 q 0 475 -49 388 q 126 636 49 563 q 142 636 132 640 q 239 708 178 690 q 299 703 268 714 q 357 667 329 692 q 408 614 385 643 q 453 551 432 585 q 803 665 635 588 m 396 549 q 346 585 376 575 q 285 589 315 596 q 396 549 332 546 m 238 196 q 374 289 311 225 q 444 425 438 353 q 443 450 444 438 q 163 492 231 401 q 74 367 110 436 q 48 310 57 335 q 42 254 39 286 q 69 204 44 222 q 238 196 151 157 z "},"ó":{"ha":744,"x_min":-49,"x_max":836,"o":"m 803 665 q 832 657 835 679 q 785 579 828 625 q 757 558 768 563 q 497 464 631 503 q 488 247 540 350 q 321 90 436 144 q 201 69 261 63 q 93 104 142 75 q 10 185 44 133 q -35 300 -25 238 q 0 475 -49 388 q 126 636 49 563 q 142 636 132 640 q 239 708 178 690 q 299 703 268 714 q 357 667 329 692 q 408 614 385 643 q 453 551 432 585 q 803 665 635 588 m 396 549 q 346 585 376 575 q 285 589 315 596 q 396 549 332 546 m 238 196 q 374 289 311 225 q 444 425 438 353 q 443 450 444 438 q 163 492 231 401 q 74 367 110 436 q 48 310 57 335 q 42 254 39 286 q 69 204 44 222 q 238 196 151 157 z "},"ô":{"ha":744,"x_min":-49,"x_max":836,"o":"m 803 665 q 832 657 835 679 q 785 579 828 625 q 757 558 768 563 q 497 464 631 503 q 488 247 540 350 q 321 90 436 144 q 201 69 261 63 q 93 104 142 75 q 10 185 44 133 q -35 300 -25 238 q 0 475 -49 388 q 126 636 49 563 q 142 636 132 640 q 239 708 178 690 q 299 703 268 714 q 357 667 329 692 q 408 614 385 643 q 453 551 432 585 q 803 665 635 588 m 396 549 q 346 585 376 575 q 285 589 315 596 q 396 549 332 546 m 238 196 q 374 289 311 225 q 444 425 438 353 q 443 450 444 438 q 163 492 231 401 q 74 367 110 436 q 48 310 57 335 q 42 254 39 286 q 69 204 44 222 q 238 196 151 157 z "},"õ":{"ha":744,"x_min":-49,"x_max":836,"o":"m 803 665 q 832 657 835 679 q 785 579 828 625 q 757 558 768 563 q 497 464 631 503 q 488 247 540 350 q 321 90 436 144 q 201 69 261 63 q 93 104 142 75 q 10 185 44 133 q -35 300 -25 238 q 0 475 -49 388 q 126 636 49 563 q 142 636 132 640 q 239 708 178 690 q 299 703 268 714 q 357 667 329 692 q 408 614 385 643 q 453 551 432 585 q 803 665 635 588 m 396 549 q 346 585 376 575 q 285 589 315 596 q 396 549 332 546 m 238 196 q 374 289 311 225 q 444 425 438 353 q 443 450 444 438 q 163 492 231 401 q 74 367 110 436 q 48 310 57 335 q 42 254 39 286 q 69 204 44 222 q 238 196 151 157 z "},"ö":{"ha":744,"x_min":-49,"x_max":836,"o":"m 803 665 q 832 657 835 679 q 785 579 828 625 q 757 558 768 563 q 497 464 631 503 q 488 247 540 350 q 321 90 436 144 q 201 69 261 63 q 93 104 142 75 q 10 185 44 133 q -35 300 -25 238 q 0 475 -49 388 q 126 636 49 563 q 142 636 132 640 q 239 708 178 690 q 299 703 268 714 q 357 667 329 692 q 408 614 385 643 q 453 551 432 585 q 803 665 635 588 m 396 549 q 346 585 376 575 q 285 589 315 596 q 396 549 332 546 m 238 196 q 374 289 311 225 q 444 425 438 353 q 443 450 444 438 q 163 492 231 401 q 74 367 110 436 q 48 310 57 335 q 42 254 39 286 q 69 204 44 222 q 238 196 151 157 z "},"ø":{"ha":744,"x_min":-49,"x_max":836,"o":"m 803 665 q 832 657 835 679 q 785 579 828 625 q 757 558 768 563 q 497 464 631 503 q 488 247 540 350 q 321 90 436 144 q 201 69 261 63 q 93 104 142 75 q 10 185 44 133 q -35 300 -25 238 q 0 475 -49 388 q 126 636 49 563 q 142 636 132 640 q 239 708 178 690 q 299 703 268 714 q 357 667 329 692 q 408 614 385 643 q 453 551 432 585 q 803 665 635 588 m 396 549 q 346 585 376 575 q 285 589 315 596 q 396 549 332 546 m 238 196 q 374 289 311 225 q 444 425 438 353 q 443 450 444 438 q 163 492 231 401 q 74 367 110 436 q 48 310 57 335 q 42 254 39 286 q 69 204 44 222 q 238 196 151 157 z "},"p":{"ha":492,"x_min":-206,"x_max":475,"o":"m 436 650 q 457 454 475 556 q 454 440 458 447 q 451 426 453 429 q 427 347 444 390 q 382 256 410 303 q 320 181 354 210 q 244 147 286 153 q 156 176 201 140 q 92 269 100 219 q 112 360 83 318 q 188 443 140 403 q 287 510 236 483 q 379 549 338 536 q 385 607 385 578 q 379 650 385 629 q 375 654 375 653 q 364 666 369 660 q 356 674 358 672 q 349 678 354 676 q 332 679 343 679 q 271 653 297 675 q 117 479 176 581 q 106 474 113 472 q -128 -797 -46 -156 q -167 -789 -132 -828 q -206 -715 -206 -746 q -206 -712 -206 -714 q -74 104 -144 -267 q 96 818 -4 475 q 135 799 101 836 q 168 742 160 769 q 319 788 251 817 q 379 732 357 768 q 406 703 394 718 q 436 650 424 678 m 201 269 l 200 269 q 278 313 244 282 q 329 385 311 343 q 201 269 246 347 z "},"q":{"ha":475,"x_min":-44,"x_max":479,"o":"m 399 714 q 439 690 403 732 q 475 619 478 643 q 449 500 467 558 q 380 179 403 290 q 324 -114 357 68 q 274 -451 290 -296 q 257 -756 258 -606 q 221 -746 256 -783 q 179 -669 179 -699 q 294 233 194 -212 q 222 172 261 199 q 100 119 156 128 q 6 147 44 111 q -39 265 -32 183 q -26 394 -43 307 q 20 572 -10 482 q 98 724 50 661 q 196 779 146 788 q 344 518 294 764 q 372 594 361 556 q 399 714 386 654 m 92 251 q 317 461 243 315 q 279 522 292 488 q 241 612 268 593 q 184 603 214 631 q 128 517 154 575 q 61 329 86 426 q 44 271 54 304 q 37 234 35 238 q 65 240 39 231 q 92 251 81 247 z "},"r":{"ha":610,"x_min":64,"x_max":647,"o":"m 547 286 q 618 351 574 328 q 646 351 646 367 q 629 319 644 342 q 581 249 600 275 q 531 185 563 224 q 465 122 499 147 q 397 83 432 97 q 310 92 338 60 q 290 189 283 125 q 301 247 292 207 q 314 306 311 286 q 311 365 317 326 q 294 397 306 382 q 268 421 283 411 q 238 438 253 431 q 204 456 222 446 q 174 476 186 467 l 174 478 q 126 436 149 456 q 69 426 75 396 q 97 494 64 457 q 113 510 104 503 q 131 525 118 514 q 81 710 71 608 q 123 827 85 760 q 213 925 161 894 q 318 896 265 956 q 275 592 410 778 q 329 551 294 574 q 383 515 364 529 q 418 470 403 501 q 431 394 433 439 q 417 323 429 374 q 406 246 404 272 q 485 214 411 154 q 547 286 524 246 m 222 661 q 229 733 235 697 q 201 789 219 764 q 197 760 197 761 q 222 661 199 708 z "},"s":{"ha":549,"x_min":-21,"x_max":711,"o":"m 678 672 q 707 663 710 685 q 660 586 704 631 q 631 564 643 569 q 365 447 494 513 q 392 363 392 410 q 369 278 393 317 q 289 169 342 219 q 169 94 236 118 q 36 101 101 69 q -12 152 -3 121 q -3 219 -21 183 q 35 283 14 254 q 82 336 57 311 q 182 421 129 382 q 123 533 129 481 q 157 668 117 586 q 278 803 201 750 q 447 865 354 856 q 458 828 481 869 q 393 758 433 782 q 374 751 382 751 q 260 685 299 744 q 260 561 221 626 q 311 506 282 531 q 678 672 489 603 m 192 204 q 257 228 236 210 q 274 272 278 246 q 258 323 271 297 q 225 374 246 349 q 110 269 121 313 q 126 218 100 235 q 192 204 153 201 z "},"ß":{"ha":549,"x_min":-21,"x_max":711,"o":"m 678 672 q 707 663 710 685 q 660 586 704 631 q 631 564 643 569 q 365 447 494 513 q 392 363 392 410 q 369 278 393 317 q 289 169 342 219 q 169 94 236 118 q 36 101 101 69 q -12 152 -3 121 q -3 219 -21 183 q 35 283 14 254 q 82 336 57 311 q 182 421 129 382 q 123 533 129 481 q 157 668 117 586 q 278 803 201 750 q 447 865 354 856 q 458 828 481 869 q 393 758 433 782 q 374 751 382 751 q 260 685 299 744 q 260 561 221 626 q 311 506 282 531 q 678 672 489 603 m 192 204 q 257 228 236 210 q 274 272 278 246 q 258 323 271 297 q 225 374 246 349 q 110 269 121 313 q 126 218 100 235 q 192 204 153 201 z "},"t":{"ha":453,"x_min":-86,"x_max":1047,"o":"m 969 1043 q 1019 993 994 1044 q 1028 929 1047 939 l 1022 926 l 388 881 q 133 -310 207 297 q 85 -303 129 -349 q 26 -206 38 -254 q 24 -190 24 -196 q 240 869 88 349 l -8 851 q -58 901 -32 850 q -65 967 -85 956 q -60 968 -62 968 l 275 992 q 431 1508 329 1182 q 481 1483 438 1532 q 536 1378 535 1424 l 535 1364 q 424 1003 465 1142 l 969 1043 z "},"u":{"ha":593,"x_min":-29,"x_max":647,"o":"m 633 335 q 645 315 647 329 q 637 290 643 301 q 622 269 631 279 q 581 226 603 249 q 522 171 560 204 q 451 119 485 138 q 385 91 418 100 q 328 103 351 82 q 296 175 304 125 q 292 271 288 222 q 175 151 243 201 q 112 119 144 131 q 44 115 79 107 q -8 157 8 122 q -28 251 -28 193 q -22 353 -29 310 q 3 467 -14 396 q 24 556 21 539 q 85 622 31 585 q 142 635 136 658 q 142 624 143 629 q 128 560 138 603 q 113 493 118 517 q 101 426 108 469 q 95 358 94 382 q 97 292 96 333 q 131 232 104 244 q 190 254 157 219 q 217 284 204 268 q 241 321 229 300 q 262 356 253 342 q 283 398 271 371 q 300 435 294 425 q 318 478 306 446 q 333 517 331 510 q 349 558 336 524 q 364 596 363 593 q 426 653 372 619 q 479 657 482 688 q 478 651 478 654 q 422 397 442 526 q 417 369 421 390 q 411 335 413 349 q 408 302 410 321 q 410 268 407 283 q 418 242 413 253 q 438 217 428 225 q 458 209 447 208 q 477 213 468 210 q 497 228 486 217 q 515 246 508 239 q 534 267 522 253 q 550 286 546 281 q 633 335 606 349 z "},"ù":{"ha":593,"x_min":-29,"x_max":647,"o":"m 633 335 q 645 315 647 329 q 637 290 643 301 q 622 269 631 279 q 581 226 603 249 q 522 171 560 204 q 451 119 485 138 q 385 91 418 100 q 328 103 351 82 q 296 175 304 125 q 292 271 288 222 q 175 151 243 201 q 112 119 144 131 q 44 115 79 107 q -8 157 8 122 q -28 251 -28 193 q -22 353 -29 310 q 3 467 -14 396 q 24 556 21 539 q 85 622 31 585 q 142 635 136 658 q 142 624 143 629 q 128 560 138 603 q 113 493 118 517 q 101 426 108 469 q 95 358 94 382 q 97 292 96 333 q 131 232 104 244 q 190 254 157 219 q 217 284 204 268 q 241 321 229 300 q 262 356 253 342 q 283 398 271 371 q 300 435 294 425 q 318 478 306 446 q 333 517 331 510 q 349 558 336 524 q 364 596 363 593 q 426 653 372 619 q 479 657 482 688 q 478 651 478 654 q 422 397 442 526 q 417 369 421 390 q 411 335 413 349 q 408 302 410 321 q 410 268 407 283 q 418 242 413 253 q 438 217 428 225 q 458 209 447 208 q 477 213 468 210 q 497 228 486 217 q 515 246 508 239 q 534 267 522 253 q 550 286 546 281 q 633 335 606 349 z "},"ú":{"ha":593,"x_min":-29,"x_max":647,"o":"m 633 335 q 645 315 647 329 q 637 290 643 301 q 622 269 631 279 q 581 226 603 249 q 522 171 560 204 q 451 119 485 138 q 385 91 418 100 q 328 103 351 82 q 296 175 304 125 q 292 271 288 222 q 175 151 243 201 q 112 119 144 131 q 44 115 79 107 q -8 157 8 122 q -28 251 -28 193 q -22 353 -29 310 q 3 467 -14 396 q 24 556 21 539 q 85 622 31 585 q 142 635 136 658 q 142 624 143 629 q 128 560 138 603 q 113 493 118 517 q 101 426 108 469 q 95 358 94 382 q 97 292 96 333 q 131 232 104 244 q 190 254 157 219 q 217 284 204 268 q 241 321 229 300 q 262 356 253 342 q 283 398 271 371 q 300 435 294 425 q 318 478 306 446 q 333 517 331 510 q 349 558 336 524 q 364 596 363 593 q 426 653 372 619 q 479 657 482 688 q 478 651 478 654 q 422 397 442 526 q 417 369 421 390 q 411 335 413 349 q 408 302 410 321 q 410 268 407 283 q 418 242 413 253 q 438 217 428 225 q 458 209 447 208 q 477 213 468 210 q 497 228 486 217 q 515 246 508 239 q 534 267 522 253 q 550 286 546 281 q 633 335 606 349 z "},"û":{"ha":593,"x_min":-29,"x_max":647,"o":"m 633 335 q 645 315 647 329 q 637 290 643 301 q 622 269 631 279 q 581 226 603 249 q 522 171 560 204 q 451 119 485 138 q 385 91 418 100 q 328 103 351 82 q 296 175 304 125 q 292 271 288 222 q 175 151 243 201 q 112 119 144 131 q 44 115 79 107 q -8 157 8 122 q -28 251 -28 193 q -22 353 -29 310 q 3 467 -14 396 q 24 556 21 539 q 85 622 31 585 q 142 635 136 658 q 142 624 143 629 q 128 560 138 603 q 113 493 118 517 q 101 426 108 469 q 95 358 94 382 q 97 292 96 333 q 131 232 104 244 q 190 254 157 219 q 217 284 204 268 q 241 321 229 300 q 262 356 253 342 q 283 398 271 371 q 300 435 294 425 q 318 478 306 446 q 333 517 331 510 q 349 558 336 524 q 364 596 363 593 q 426 653 372 619 q 479 657 482 688 q 478 651 478 654 q 422 397 442 526 q 417 369 421 390 q 411 335 413 349 q 408 302 410 321 q 410 268 407 283 q 418 242 413 253 q 438 217 428 225 q 458 209 447 208 q 477 213 468 210 q 497 228 486 217 q 515 246 508 239 q 534 267 522 253 q 550 286 546 281 q 633 335 606 349 z "},"ü":{"ha":593,"x_min":-29,"x_max":647,"o":"m 633 335 q 645 315 647 329 q 637 290 643 301 q 622 269 631 279 q 581 226 603 249 q 522 171 560 204 q 451 119 485 138 q 385 91 418 100 q 328 103 351 82 q 296 175 304 125 q 292 271 288 222 q 175 151 243 201 q 112 119 144 131 q 44 115 79 107 q -8 157 8 122 q -28 251 -28 193 q -22 353 -29 310 q 3 467 -14 396 q 24 556 21 539 q 85 622 31 585 q 142 635 136 658 q 142 624 143 629 q 128 560 138 603 q 113 493 118 517 q 101 426 108 469 q 95 358 94 382 q 97 292 96 333 q 131 232 104 244 q 190 254 157 219 q 217 284 204 268 q 241 321 229 300 q 262 356 253 342 q 283 398 271 371 q 300 435 294 425 q 318 478 306 446 q 333 517 331 510 q 349 558 336 524 q 364 596 363 593 q 426 653 372 619 q 479 657 482 688 q 478 651 478 654 q 422 397 442 526 q 417 369 421 390 q 411 335 413 349 q 408 302 410 321 q 410 268 407 283 q 418 242 413 253 q 438 217 428 225 q 458 209 447 208 q 477 213 468 210 q 497 228 486 217 q 515 246 508 239 q 534 267 522 253 q 550 286 546 281 q 633 335 606 349 z "},"v":{"ha":593,"x_min":-78,"x_max":699,"o":"m 672 571 q 690 556 685 583 q 674 492 699 514 q 612 450 643 463 q 553 440 581 438 q 501 456 525 443 q 456 490 478 468 q 436 447 449 474 q 420 414 424 421 q 408 388 417 407 q 394 353 399 365 q 376 313 389 340 q 354 270 363 286 q 331 225 346 254 q 305 182 315 196 q 278 144 294 168 q 250 113 261 119 q 222 92 239 106 q 192 83 204 78 q 164 89 181 88 q 137 113 149 96 q 119 144 125 129 q 108 186 113 160 q 101 226 103 213 q 98 267 100 239 q 96 299 96 296 q 94 328 94 308 q 92 368 93 349 q 90 415 92 388 q 85 464 88 442 q 77 510 82 486 q 65 551 72 535 q 49 581 58 567 q 26 596 39 594 q -3 593 14 597 q -26 598 -12 589 q -49 623 -39 607 q -68 657 -60 639 q -76 688 -76 675 q -69 707 -76 701 q -17 717 -40 717 q 26 703 6 717 q 62 672 46 689 q 91 629 78 654 q 113 582 104 604 q 129 536 122 560 q 165 314 158 426 q 168 274 165 300 q 171 235 171 247 q 233 306 229 299 q 332 486 288 393 q 355 551 340 504 q 379 619 369 599 q 372 684 368 656 q 396 718 375 713 q 438 707 418 725 q 469 664 458 689 q 483 618 481 639 q 481 564 486 592 q 583 544 522 544 q 672 571 643 544 z "},"w":{"ha":772,"x_min":0,"x_max":858,"o":"m 796 601 q 842 532 821 590 q 838 489 857 486 q 832 492 835 490 q 721 526 765 524 q 656 506 676 529 q 624 444 635 482 q 608 359 614 407 q 596 266 603 311 q 569 179 589 221 q 514 115 549 138 q 444 90 476 93 q 388 104 413 88 q 343 147 363 121 q 310 211 324 174 q 233 108 281 140 q 119 107 186 76 q 31 188 60 135 q 3 301 1 240 q 22 427 4 361 q 68 547 40 493 q 126 642 96 601 q 176 615 142 663 q 201 542 213 567 q 200 539 201 540 q 82 281 103 426 q 108 211 78 222 q 186 239 138 200 q 268 442 257 296 q 271 482 268 461 q 312 468 275 515 q 349 396 349 421 q 340 318 347 357 q 354 233 338 263 q 419 217 371 203 q 467 243 447 224 q 497 294 486 263 q 511 347 507 325 q 519 404 515 368 q 521 417 521 413 q 526 464 522 422 q 534 523 531 506 q 549 569 538 540 q 575 614 560 597 q 625 644 597 636 q 686 643 653 651 q 741 626 719 635 q 796 601 763 618 z "},"x":{"ha":575,"x_min":-328,"x_max":543,"o":"m 468 640 q 483 640 475 644 q 500 628 492 636 q 517 608 508 619 q 531 583 525 596 q 540 559 536 571 q 542 539 543 547 q 535 526 540 531 q 336 399 431 469 q 408 81 406 247 q 374 90 408 51 q 331 167 332 138 q 292 365 331 269 q -243 -296 -47 93 q -287 -274 -253 -315 q -318 -196 -328 -224 q -317 -193 -318 -194 q 228 481 -117 203 q 143 565 192 529 q 107 633 122 582 q 111 671 94 674 q 126 663 118 669 q 269 513 211 599 q 468 640 364 583 z "},"y":{"ha":564,"x_min":-51,"x_max":571,"o":"m 486 715 q 529 693 496 735 q 561 613 569 640 q 485 415 518 518 q 430 194 453 311 q 392 -17 407 78 q 366 -247 378 -111 q 349 -459 354 -382 q 336 -679 344 -536 q 333 -739 335 -719 q 297 -731 332 -768 q 256 -654 257 -683 q 274 -339 268 -431 q 299 -63 279 -247 q 347 263 319 121 q 36 124 176 60 q -14 160 6 138 q -40 215 -33 183 q -49 276 -47 246 q -42 348 -51 307 q -25 419 -32 389 q -1 490 -18 449 q 24 553 15 532 q 47 608 32 574 q 51 617 50 614 q 54 624 53 619 q 57 631 56 628 q 100 608 65 651 q 132 528 142 556 q 65 349 93 440 q 43 269 53 310 q 50 242 42 250 q 67 238 58 235 l 76 240 q 190 300 139 257 q 486 715 358 421 z "},"ý":{"ha":564,"x_min":-51,"x_max":571,"o":"m 486 715 q 529 693 496 735 q 561 613 569 640 q 485 415 518 518 q 430 194 453 311 q 392 -17 407 78 q 366 -247 378 -111 q 349 -459 354 -382 q 336 -679 344 -536 q 333 -739 335 -719 q 297 -731 332 -768 q 256 -654 257 -683 q 274 -339 268 -431 q 299 -63 279 -247 q 347 263 319 121 q 36 124 176 60 q -14 160 6 138 q -40 215 -33 183 q -49 276 -47 246 q -42 348 -51 307 q -25 419 -32 389 q -1 490 -18 449 q 24 553 15 532 q 47 608 32 574 q 51 617 50 614 q 54 624 53 619 q 57 631 56 628 q 100 608 65 651 q 132 528 142 556 q 65 349 93 440 q 43 269 53 310 q 50 242 42 250 q 67 238 58 235 l 76 240 q 190 300 139 257 q 486 715 358 421 z "},"ÿ":{"ha":564,"x_min":-51,"x_max":571,"o":"m 486 715 q 529 693 496 735 q 561 613 569 640 q 485 415 518 518 q 430 194 453 311 q 392 -17 407 78 q 366 -247 378 -111 q 349 -459 354 -382 q 336 -679 344 -536 q 333 -739 335 -719 q 297 -731 332 -768 q 256 -654 257 -683 q 274 -339 268 -431 q 299 -63 279 -247 q 347 263 319 121 q 36 124 176 60 q -14 160 6 138 q -40 215 -33 183 q -49 276 -47 246 q -42 348 -51 307 q -25 419 -32 389 q -1 490 -18 449 q 24 553 15 532 q 47 608 32 574 q 51 617 50 614 q 54 624 53 619 q 57 631 56 628 q 100 608 65 651 q 132 528 142 556 q 65 349 93 440 q 43 269 53 310 q 50 242 42 250 q 67 238 58 235 l 76 240 q 190 300 139 257 q 486 715 358 421 z "},"z":{"ha":632,"x_min":24,"x_max":665,"o":"m 581 376 q 615 369 592 390 q 651 317 638 349 q 654 272 664 285 q 567 165 614 225 q 585 56 581 111 q 590 -67 593 4 q 579 -215 586 -139 q 551 -371 572 -292 q 503 -517 531 -450 q 430 -638 475 -585 q 329 -715 385 -692 q 217 -726 263 -742 q 144 -667 171 -711 q 106 -564 117 -622 q 97 -448 94 -506 q 115 -349 100 -390 q 259 -53 167 -200 q 481 254 351 93 q 442 306 464 289 q 393 326 419 324 q 333 329 367 329 q 263 331 300 329 q 228 353 246 332 q 203 399 211 374 q 199 440 194 425 q 215 467 204 453 q 243 497 226 481 q 265 519 260 514 q 295 555 268 522 q 350 621 322 588 q 390 665 378 654 q 249 599 371 654 q 99 529 126 544 q 76 532 89 524 q 53 556 64 540 q 34 590 43 572 q 25 622 25 608 q 32 642 25 636 q 81 671 46 650 q 141 706 117 692 q 203 738 165 719 q 271 764 242 757 q 332 774 300 771 q 390 765 364 776 q 436 728 417 753 q 460 692 451 710 q 470 655 469 674 q 471 622 471 636 q 461 588 471 607 q 447 558 451 568 q 424 526 442 547 q 399 497 406 504 q 372 467 393 489 q 344 439 350 444 q 478 356 429 426 q 517 299 500 329 q 581 376 546 336 m 497 -122 q 513 93 515 -15 q 372 -108 439 -6 q 194 -446 249 -299 q 236 -610 132 -621 q 246 -608 240 -610 q 333 -559 292 -601 q 399 -462 374 -517 q 447 -338 425 -408 q 479 -219 469 -268 q 497 -122 489 -171 z "}," ":{"ha":429,"x_min":0,"x_max":0,"o":""},"":{"ha":1164,"x_min":11,"x_max":1233,"o":"m 1115 346 q 1185 404 1131 374 q 1232 406 1233 431 q 1225 388 1231 399 q 1187 315 1204 346 q 1138 236 1169 283 q 1074 160 1106 189 q 1001 113 1043 132 q 918 100 960 94 q 859 124 885 106 q 817 172 833 142 q 788 231 800 201 q 770 300 776 260 q 761 365 764 340 q 756 426 758 390 q 756 739 744 583 q 687 567 721 643 q 606 406 653 490 q 498 253 558 322 q 368 136 438 185 q 115 86 225 39 q 38 152 64 108 q 11 250 11 196 q 21 352 11 304 q 50 453 31 400 q 274 764 149 732 q 344 759 313 774 q 397 708 375 744 q 430 644 418 672 q 454 572 442 615 q 414 500 464 543 q 343 474 364 458 q 336 482 339 476 q 176 539 258 736 q 144 444 156 492 q 131 343 133 397 q 153 249 128 289 q 233 193 179 208 q 335 202 285 179 q 420 260 386 225 q 492 363 454 296 q 548 467 531 429 q 592 568 565 506 q 603 594 600 588 q 860 1454 775 1011 q 921 1521 867 1483 q 978 1533 972 1557 q 978 1522 979 1529 q 881 861 908 1194 q 869 698 872 756 q 869 548 865 640 q 890 385 874 456 q 930 285 906 324 q 984 237 954 247 q 1049 253 1014 226 q 1115 346 1083 281 z "}}}
